<?xml version="1.0" encoding="UTF-8" standalone="no"?>
<!-- Generator: Adobe Illustrator 25.0.0, SVG Export Plug-In . SVG Version: 6.00 Build 0)  -->

<svg
   version="1.1"
   id="Layer_1"
   x="0px"
   y="0px"
   viewBox="0 0 512 512"
   xml:space="preserve"
   width="512"
   height="512"
   sodipodi:docname="chart-pie-alt.svg"
   inkscape:export-filename="chart-pie-alt.svg"
   inkscape:export-xdpi="96"
   inkscape:export-ydpi="96"
   xmlns:inkscape="http://www.inkscape.org/namespaces/inkscape"
   xmlns:sodipodi="http://sodipodi.sourceforge.net/DTD/sodipodi-0.dtd"
   xmlns="http://www.w3.org/2000/svg"
   xmlns:svg="http://www.w3.org/2000/svg"><defs
   id="defs2" /><sodipodi:namedview
   id="namedview2"
   pagecolor="#ffffff"
   bordercolor="#000000"
   borderopacity="0.25"
   inkscape:showpageshadow="2"
   inkscape:pageopacity="0.0"
   inkscape:pagecheckerboard="0"
   inkscape:deskcolor="#d1d1d1" />
<path
   d="M 399.211,256 H 298.667 C 275.103,256 256,236.897 256,213.333 V 112.512 C 256.059,92.622 246.866,73.834 231.125,61.675 216.209,49.863 196.651,45.653 178.197,50.283 52.767,81.419 -23.674,208.342 7.463,333.773 29.4,422.145 100.608,489.768 189.995,507.115 312.105,530.488 431.252,454.568 461.654,334.016 466.301,315.538 462.099,295.95 450.283,281.003 437.984,265.29 419.165,256.076 399.211,256 Z"
   id="path1" />
<path
   d="M 504.555,158.848 C 499.685,140.746 492.432,123.371 482.987,107.179 454.577,58.441 408.169,22.804 353.75,7.936 350.165,6.969 342.144,6.4 342.144,6.4 c -2.866,10e-4 -15.21,0 -24.981,7.915 -14.361,11.301 -16.619,24.149 -16.832,25.152 -0.745,3.146 -1.132,6.367 -1.152,9.6 v 100.267 c 0,35.346 28.654,64 64,64 h 100.672 c 13.356,0.038 25.927,-6.303 33.835,-17.067 5.848,-7.885 8.856,-17.517 8.533,-27.328 -0.17,-3.416 -0.728,-6.802 -1.664,-10.091 z"
   id="path2" />
<path
   style="fill:#4ccd99;stroke-width:1.04065"
   d="M 218.01626,510.33088 C 183.90406,506.82012 159.56003,500.18966 132.62901,487.07437 37.194439,440.59816 -15.159319,335.11913 5.7986967,231.54472 23.001116,146.53043 85.96842,77.84365 169.04983,53.465068 c 6.90954,-2.027468 16.09788,-3.939039 20.45669,-4.255875 28.37892,-2.062829 55.34799,17.960743 64.07215,47.571295 1.43566,4.872762 1.77963,14.850492 2.314,67.121952 l 0.62766,61.39837 2.80547,5.98649 c 3.91018,8.34377 12.15038,16.71929 20.4908,20.8273 l 6.83205,3.36507 60.90332,0.60341 c 64.9754,0.64374 65.39908,0.67703 77.66536,6.10299 25.59944,11.32385 41.47599,39.82761 36.89544,66.23976 -0.68523,3.95116 -3.58786,14.20832 -6.45028,22.79368 -27.77202,83.29737 -99.99328,143.57858 -188.21534,157.09844 -10.64776,1.63175 -41.08954,2.8714 -49.43089,2.01293 z"
   id="path3" /><path
   style="fill:#007f73;fill-opacity:1;stroke-width:1.04065"
   d="m 355.90244,212.25037 c -14.5007,-1.73521 -26.51403,-7.72218 -37.48094,-18.67904 -7.80283,-7.79569 -11.72469,-14.19466 -16.27031,-26.54694 -1.75646,-4.77299 -1.9422,-9.93611 -2.24622,-62.43902 -0.35628,-61.527537 -0.0851,-65.748228 4.80468,-74.781377 3.79033,-7.00208 12.73203,-15.632431 19.78473,-19.095824 5.4009,-2.6522442 6.90196,-2.9004157 17.35928,-2.8700403 10.53653,0.030605 12.35777,0.3501331 22.89431,4.0166993 21.71024,7.55486 43.8124,19.229086 61.71339,32.596634 10.13007,7.564631 28.69798,25.508756 36.9189,35.678619 18.15881,22.463759 32.58696,50.146939 39.74341,76.255369 3.14241,11.46424 3.29239,17.1786 0.67184,25.59839 -5.33044,17.12677 -17.61834,27.74611 -35.01479,30.26019 -8.43392,1.21884 -102.70141,1.22414 -112.87828,0.006 z"
   id="path4" /><path
   style="fill:#007f73;fill-opacity:1;stroke-width:1.04065"
   d="M 208.15831,508.80338 C 161.95316,502.38806 122.68342,485.59352 87.382985,457.15121 43.173915,421.53102 12.643988,367.47026 3.9898363,309.48309 1.09931,290.11511 1.5573103,258.94744 5.0204287,239.34959 18.353377,163.89821 65.231337,101.28683 133.20325,68.145408 c 30.94542,-15.088221 57.73451,-21.08293 74.39864,-16.6485 20.86052,5.551119 39.90318,25.03253 45.38519,46.430893 1.4262,5.566989 1.80134,16.237859 2.37348,67.512869 l 0.67955,60.90079 2.7857,5.31825 c 4.09885,7.82521 12.26712,16.20441 19.75357,20.26367 l 6.55883,3.55629 62.95935,1.17406 c 59.26711,1.1052 63.35604,1.30192 69.72358,3.35456 21.88011,7.05325 38.97461,26.41887 43.47214,49.24768 2.20809,11.20798 0.91117,19.98898 -6.01498,40.72541 -11.79764,35.3213 -30.34742,65.44047 -56.21286,91.27246 -34.79857,34.75358 -80.04129,57.91444 -129.03117,66.0542 -11.92767,1.9818 -51.48675,2.93782 -61.87596,1.49534 z"
   id="path5" /></svg>
