<?xml version="1.0" encoding="UTF-8" standalone="no"?>
<svg
   id="Bold"
   viewBox="0 0 24 24"
   width="512"
   height="512"
   version="1.1"
   xmlns="http://www.w3.org/2000/svg"
   xmlns:svg="http://www.w3.org/2000/svg">
  <defs
     id="defs1" />
  <path
     d="M 18.5,9.5 A 1.5,1.5 0 0 0 20,8 V 7.313 A 5.32,5.32 0 0 0 14.687,2 H 13.5 V 1.5 a 1.5,1.5 0 0 0 -3,0 V 2 H 9.313 A 5.313,5.313 0 0 0 7.772,12.4 L 10.5,13.146 V 19 H 9.313 A 2.316,2.316 0 0 1 7,16.687 V 16 a 1.5,1.5 0 0 0 -3,0 v 0.687 A 5.32,5.32 0 0 0 9.313,22 H 10.5 v 0.5 a 1.5,1.5 0 0 0 3,0 V 22 h 1.187 A 5.313,5.313 0 0 0 16.228,11.6 L 13.5,10.856 V 5 h 1.187 A 2.316,2.316 0 0 1 17,7.313 V 8 a 1.5,1.5 0 0 0 1.5,1.5 z m -3.118,4.979 A 2.314,2.314 0 0 1 14.682,19 H 13.5 V 13.965 Z M 10.5,10.035 8.618,9.521 A 2.314,2.314 0 0 1 9.313,5 H 10.5 Z"
     id="path1"
     style="fill:#fff455;fill-opacity:1" />
</svg>
