<?xml version="1.0" encoding="UTF-8" standalone="no"?>
<svg
   width="11"
   height="17"
   version="1.1"
   id="svg1"
   xmlns="http://www.w3.org/2000/svg"
   xmlns:svg="http://www.w3.org/2000/svg">
  <defs
     id="defs1" />
  <path
     fill="#9EBBBD"
     d="m 6.016,16.328 v -1.464 c 1.232,-0.08 2.22,-0.444 2.964,-1.092 0.744,-0.648 1.116,-1.508 1.116,-2.58 V 11.048 C 10.096,10.056 9.748,9.276 9.052,8.708 8.356,8.14 7.344,7.776 6.016,7.616 V 4.184 c 0.56,0.144 1.012,0.4 1.356,0.768 0.344,0.368 0.516,0.816 0.516,1.344 V 6.584 H 9.712 V 6.152 C 9.712,5.704 9.624,5.276 9.448,4.868 A 3.783,3.783 0 0 0 8.704,3.752 4.251,4.251 0 0 0 7.54,2.9 5.324,5.324 0 0 0 6.016,2.408 V 0.872 H 4.288 V 2.36 A 5.532,5.532 0 0 0 2.872,2.684 C 2.424,2.852 2.032,3.076 1.696,3.356 1.36,3.636 1.092,3.972 0.892,4.364 c -0.2,0.392 -0.3,0.844 -0.3,1.356 v 0.144 c 0,0.96 0.316,1.708 0.948,2.244 0.632,0.536 1.548,0.884 2.748,1.044 v 3.912 C 3.584,12.904 3.04,12.592 2.656,12.128 2.272,11.664 2.08,11.048 2.08,10.28 V 9.992 H 0.256 v 0.576 c 0,0.464 0.08,0.924 0.24,1.38 0.16,0.456 0.404,0.88 0.732,1.272 0.328,0.392 0.744,0.728 1.248,1.008 0.504,0.28 1.108,0.476 1.812,0.588 v 1.512 z M 4.288,7.424 C 3.6,7.296 3.124,7.092 2.86,6.812 2.596,6.532 2.464,6.168 2.464,5.72 2.464,5.256 2.64,4.888 2.992,4.616 3.344,4.344 3.776,4.168 4.288,4.088 Z m 1.728,5.712 V 9.344 c 0.768,0.128 1.328,0.328 1.68,0.6 0.352,0.272 0.528,0.688 0.528,1.248 0,0.544 -0.196,0.984 -0.588,1.32 -0.392,0.336 -0.932,0.544 -1.62,0.624 z"
     id="path1"
     style="fill:#00294d;fill-opacity:1" />
  <path
     style="fill:#4ccd99;stroke-width:0.0345528"
     d="M 4.3191057,15.55548 V 14.802017 L 3.9994919,14.740822 C 3.3210599,14.610927 2.6592129,14.343554 2.1077236,13.976585 1.7357827,13.72909 1.1930663,13.17756 0.94010124,12.790002 0.48783726,12.097104 0.27642276,11.34611 0.27642276,10.432459 V 10.020325 H 1.1698967 2.0633706 l 0.020274,0.457825 c 0.02471,0.558019 0.083485,0.810718 0.285369,1.226924 0.2650638,0.54646 0.7457737,0.963806 1.402172,1.217345 0.1452391,0.0561 0.3279373,0.112212 0.405996,0.124694 l 0.1419244,0.0227 V 11.09588 9.1219512 l -0.09502,-2.74e-4 C 4.0594739,9.1212025 3.3134245,8.953514 2.9715447,8.8401451 2.2564683,8.6030231 1.7882628,8.3306264 1.3821138,7.9154325 0.83270782,7.3537916 0.6213765,6.7645788 0.6225512,5.7976966 0.62373954,4.8195449 0.86295362,4.2176748 1.5050317,3.5773485 2.1197224,2.9643349 2.992553,2.5586821 4.005275,2.4153468 L 4.3191057,2.3709288 V 1.6346514 0.89837398 H 5.1656504 6.0121951 V 1.6578783 2.4173826 l 0.09502,0.021149 C 7.1774549,2.6767329 7.9150013,3.0374718 8.5541032,3.6353203 9.3072816,4.3398816 9.7093496,5.2946645 9.7093496,6.3786609 V 6.5650407 H 8.8161952 7.9230407 L 7.9023118,6.2281504 C 7.8646533,5.6161114 7.6802258,5.2187218 7.2459767,4.8139308 6.9398989,4.5286162 6.4798703,4.2766689 6.1244919,4.199719 L 6.0121951,4.1754035 V 5.903674 7.6319444 l 0.164126,0.022462 c 1.6973778,0.2322988 2.9437294,0.8752654 3.4948341,1.8029126 0.2901109,0.4883288 0.3973538,0.943243 0.3974588,1.685974 1.07e-4,0.760604 -0.1322432,1.299009 -0.4536279,1.845381 -0.151574,0.257684 -0.5597094,0.704754 -0.8360444,0.915801 -0.6155818,0.470141 -1.4237994,0.78417 -2.2778045,0.88503 -0.1833999,0.02166 -0.368439,0.04617 -0.4111982,0.05446 -0.077674,0.01506 -0.077744,0.01573 -0.077744,0.740028 v 0.724951 H 5.1656504 4.3191057 Z m 2.3491326,-2.532268 c 0.710394,-0.1927 1.2423026,-0.618287 1.4559881,-1.164956 0.1158889,-0.296477 0.132978,-0.920113 0.034131,-1.245545 C 8.0198675,10.156763 7.7204761,9.8576791 7.1869919,9.6423426 6.9375525,9.5416584 6.4114705,9.3935103 6.1417683,9.3480011 L 6.0121951,9.3261368 v 1.9140182 1.914018 l 0.1986789,-0.0304 c 0.1092734,-0.01672 0.3150874,-0.06197 0.4573643,-0.100565 z M 4.3191057,5.7530488 c 0,-1.4880283 -0.00598,-1.675813 -0.053366,-1.675813 -0.1517858,0 -0.5558136,0.1296117 -0.8622842,0.27662 C 2.9722291,4.5607068 2.7372799,4.7752779 2.5811861,5.1048063 2.4754443,5.3280367 2.470588,5.3568344 2.4718674,5.7530488 c 0.00114,0.3517255 0.013337,0.4434671 0.08042,0.6046748 0.1701355,0.4088559 0.4381113,0.6603442 0.9063888,0.8506223 0.243407,0.098905 0.6613596,0.2156443 0.7826857,0.2186134 l 0.077744,0.0019 z"
     id="path2" />
  <path
     style="fill:#4ccd99;stroke-width:0.0345528"
     d="m 4.3191057,15.551109 c 0,-0.69215 -0.00524,-0.759327 -0.060467,-0.775059 C 4.2253817,14.76655 4.1048785,14.74123 3.9908542,14.71972 3.6471502,14.654882 3.1130167,14.479694 2.7692205,14.319037 2.3104389,14.104647 1.9129019,13.829062 1.5612927,13.481663 0.70427997,12.634913 0.35751575,11.822592 0.29389963,10.512703 L 0.26998679,10.020325 H 1.1543023 c 0.4863736,0 0.8848643,0.01166 0.885535,0.02591 0.021139,0.449223 0.076586,0.983475 0.1197034,1.153368 0.030724,0.121059 0.1200333,0.352272 0.198466,0.513807 0.1153022,0.237468 0.1992635,0.34993 0.4385389,0.587398 0.1627637,0.161535 0.3864888,0.346827 0.4971668,0.411761 0.2103816,0.12343 0.7203321,0.324723 0.9130965,0.360427 l 0.1122968,0.0208 V 11.109442 9.1250827 L 4.1895325,9.1043327 C 2.5064726,8.8348088 1.405701,8.2063084 0.9222272,7.2388211 0.71330393,6.8207414 0.65571225,6.5119322 0.65433805,5.8023868 0.6524308,4.8176107 0.86740617,4.2573679 1.4875049,3.6310886 2.1571728,2.9547461 2.9290127,2.6050659 4.2068089,2.3991146 l 0.1122968,-0.0181 V 1.6396945 0.89837398 H 5.1656504 6.0121951 V 1.6713175 2.444261 l 0.2047526,0.040283 c 0.8356678,0.1644075 1.7141929,0.6028011 2.2950435,1.1452513 0.7421481,0.6930846 1.1051486,1.5042814 1.178194,2.6329083 L 9.7097532,6.565041 H 8.8309399 7.952127 L 7.9325742,6.3663618 C 7.8664663,5.6946313 7.7874809,5.4473985 7.5295177,5.1047489 7.2321234,4.7097246 6.6889406,4.3425284 6.1935976,4.2016559 l -0.1814025,-0.05159 v 1.7441405 c 0,1.3659414 0.00937,1.7467172 0.043191,1.7560212 0.023755,0.00653 0.2453252,0.046654 0.492378,0.089154 0.8329416,0.1432914 1.6814261,0.4581051 2.2194941,0.8234997 0.9379228,0.6369313 1.3421508,1.5249547 1.2768378,2.8050037 -0.0344,0.674167 -0.1987285,1.234362 -0.4914665,1.67539 -0.1970524,0.296872 -0.6366987,0.744448 -0.9313263,0.948124 -0.6129022,0.423699 -1.2874249,0.660478 -2.2981326,0.806719 l -0.2936992,0.0425 -0.00933,0.734165 -0.00933,0.734164 H 5.1649632 4.3191057 Z m 2.1141196,-2.454333 c 0.9258339,-0.204738 1.567513,-0.704841 1.7411124,-1.356963 0.067358,-0.253029 0.064021,-0.896459 -0.00588,-1.134456 C 8.0679129,10.263057 7.8550421,9.9916533 7.5342725,9.7967963 7.3100041,9.6605603 6.7401693,9.4606361 6.305214,9.3655861 L 6.0121951,9.3015535 v 1.9315405 c 0,1.816812 0.00359,1.931496 0.060468,1.930792 0.033257,-4.11e-4 0.1955104,-0.03061 0.3605622,-0.06711 z M 4.3191057,5.7530488 V 4.0772358 H 4.219087 c -0.1512807,0 -0.5395486,0.1283092 -0.8613666,0.2846522 -0.355881,0.172891 -0.6148073,0.4050651 -0.7691118,0.6896471 l -0.1180801,0.2177738 9.09e-5,0.4837399 c 8.62e-5,0.4580961 0.00515,0.4940414 0.09547,0.6780647 0.1221018,0.2487701 0.3224711,0.475726 0.5474593,0.6201005 0.215226,0.1381102 0.8966433,0.3771378 1.075984,0.3774339 l 0.1295732,2.139e-4 z"
     id="path3" />
  <path
     style="fill:#4ccd99;stroke-width:0.0345528"
     d="m 4.3191057,15.551109 c 0,-0.69215 -0.00524,-0.759327 -0.060467,-0.775059 C 4.2253817,14.76655 4.1048785,14.74123 3.9908542,14.71972 3.6471502,14.654882 3.1130167,14.479694 2.7692205,14.319037 2.3104389,14.104647 1.9129019,13.829062 1.5612927,13.481663 0.70427997,12.634913 0.35751575,11.822592 0.29389963,10.512703 L 0.26998679,10.020325 H 1.1515522 2.0331175 l 0.018795,0.215955 c 0.010337,0.118776 0.027921,0.340346 0.039074,0.492379 0.027343,0.372715 0.098699,0.63434 0.2685852,0.984756 0.1151451,0.237504 0.1989635,0.349893 0.4380734,0.587398 0.1626264,0.161535 0.3860477,0.346827 0.4964918,0.411761 0.209758,0.123325 0.719588,0.324664 0.9126713,0.360427 l 0.1122968,0.0208 V 11.109442 9.1250827 L 4.1895325,9.1046447 C 2.5179043,8.8409751 1.4053746,8.2056554 0.9222272,7.2388211 0.71330393,6.8207414 0.65571225,6.5119322 0.65433805,5.8023868 0.6524308,4.8176107 0.86740617,4.2573679 1.4875049,3.6310886 2.1571728,2.9547461 2.9290127,2.6050659 4.2068089,2.3991146 l 0.1122968,-0.0181 V 1.6396945 0.89837398 H 5.1656504 6.0121951 V 1.6688998 2.4394256 l 0.2131469,0.044025 c 0.9339941,0.1929133 1.8721291,0.694292 2.4547885,1.3119417 0.6390421,0.6774181 0.9381046,1.4066836 1.0118131,2.4673112 l 0.021011,0.3023374 H 8.8325407 7.952127 L 7.9316278,6.3663618 C 7.8888949,5.9521934 7.8407939,5.6969225 7.7731443,5.5252944 7.5463435,4.9498962 6.8986124,4.4075599 6.1935976,4.2027615 L 6.0121951,4.1500663 v 1.7441405 c 0,1.3659414 0.00937,1.7467172 0.043191,1.7560212 0.023755,0.00653 0.2453252,0.046654 0.492378,0.089154 0.8329416,0.1432914 1.6814261,0.4581051 2.2194941,0.8234997 0.9379228,0.6369313 1.3421508,1.5249553 1.2768378,2.8050043 -0.047821,0.937242 -0.2887591,1.520658 -0.890547,2.156405 -0.6756529,0.713781 -1.5599452,1.104294 -2.9167605,1.288075 l -0.2073171,0.02808 -0.00933,0.734248 -0.00933,0.734248 H 5.1649632 4.3191057 Z m 2.2632114,-2.493285 c 0.379402,-0.08985 0.8518181,-0.329232 1.105691,-0.560278 0.3947898,-0.359293 0.5355691,-0.712925 0.5355691,-1.345326 0,-0.742885 -0.2530529,-1.152641 -0.8998742,-1.457121 C 7.0491706,9.5658675 6.4374398,9.3781616 6.1724333,9.3418383 L 6.0121951,9.3198751 v 1.8993439 c 0,1.04464 0.01055,1.909894 0.023444,1.922789 0.027402,0.0274 0.1648931,0.0062 0.5466782,-0.08418 z M 4.3191057,5.7530488 V 4.0772358 H 4.219087 c -0.1527219,0 -0.5418567,0.1292446 -0.8575622,0.284825 C 2.9988879,4.5407688 2.7408051,4.7707985 2.5891897,5.050445 l -0.1186612,0.2188639 9.09e-5,0.4837399 c 8.74e-5,0.4646414 0.00409,0.4919247 0.1013421,0.6910569 0.1346255,0.2756529 0.4255957,0.5591372 0.7186881,0.7001985 0.2721314,0.130973 0.7553335,0.2800847 0.9161593,0.2827183 l 0.1122968,0.00184 z"
     id="path4" />
  <path
     style="fill:#ffc700;fill-opacity:1;stroke-width:0.0345528"
     d="M 4.3296481,15.568863 C 4.3238498,15.161818 4.309284,14.818994 4.2972797,14.80703 4.2852757,14.795066 4.11349,14.748681 3.9155336,14.703951 3.2483426,14.553193 2.6857164,14.322954 2.1752334,13.99178 1.8578488,13.785878 1.2053545,13.146654 0.99585019,12.836382 0.52730864,12.142482 0.29369919,11.333418 0.29369919,10.40461 V 10.020325 H 1.1747967 2.0558943 l 5.988e-4,0.198679 c 9.304e-4,0.308745 0.063499,0.835479 0.1241577,1.045224 0.1212261,0.419172 0.2867629,0.689955 0.6343958,1.037734 0.2555477,0.255654 0.3911474,0.361053 0.6056851,0.470784 0.252685,0.129242 0.5788583,0.24972 0.8206301,0.303114 l 0.09502,0.02098 V 11.11252 9.1281949 L 4.085874,9.0873711 C 3.4722451,8.987371 2.6806087,8.7470584 2.2597109,8.5330128 1.9973747,8.3996029 1.7017558,8.1848086 1.4566628,7.9495251 0.83949569,7.3570589 0.60314373,6.6731358 0.64983505,5.6148374 0.69058212,4.6912713 0.94923985,4.1229575 1.6052819,3.5155632 2.2573182,2.9118775 3.0701923,2.5596321 4.1722561,2.4032077 L 4.3363821,2.379912 V 1.639143 0.89837398 h 0.8286073 0.8286073 l 0.0093,0.76556322 0.0093,0.7655632 L 6.375,2.5247225 C 7.3336172,2.776322 8.0276318,3.1472646 8.6108953,3.7197819 9.280914,4.3774558 9.6914063,5.362735 9.6919343,6.3145325 l 1.389e-4,0.2505082 H 8.8159333 7.9397933 L 7.9165828,6.2575756 C 7.8737003,5.6895216 7.7303202,5.3259438 7.4054367,4.9614331 7.0993303,4.6179892 6.4938766,4.2518486 6.1379447,4.1949328 l -0.143026,-0.022871 0.00387,1.4124446 c 0.00213,0.7768447 0.013789,1.5588768 0.025915,1.7378495 l 0.022047,0.3254049 0.3695143,0.062087 c 1.4640953,0.2460004 2.6065095,0.8302316 3.140174,1.6058863 0.142895,0.207691 0.3288339,0.6095136 0.3979918,0.8600789 0.076404,0.276819 0.1061152,1.262314 0.04969,1.648205 -0.086131,0.589054 -0.3188928,1.096151 -0.7152412,1.558235 -0.6501674,0.758 -1.5774483,1.217809 -2.8077086,1.392254 -0.2199275,0.03118 -0.4096223,0.06655 -0.4215437,0.0786 -0.020189,0.02039 -0.062666,0.865184 -0.06408,1.274438 l -6.268e-4,0.181402 H 5.1675546 4.3401905 Z M 6.4159489,13.096776 C 7.0141585,12.964489 7.4779009,12.721494 7.8036603,12.369635 8.0621526,12.090432 8.1622193,11.86525 8.2072476,11.461432 8.2970563,10.656023 8.0604021,10.105275 7.4806911,9.7705727 7.2057347,9.6118235 6.3068179,9.3302396 6.0726626,9.3295105 l -0.077744,-2.422e-4 1.403e-4,1.4771337 c 1.569e-4,1.6544 0.024932,2.35863 0.082936,2.357484 0.020823,-4.11e-4 0.1729017,-0.03061 0.337954,-0.06711 z M 4.3360017,5.882622 C 4.3357926,5.03219 4.3259838,4.2780742 4.3142044,4.2068089 4.2870241,4.0423677 4.233681,4.0398132 3.8076396,4.1825501 3.1820344,4.3921473 2.7728769,4.6925705 2.5757447,5.0870669 2.4744326,5.2898102 2.4705285,5.3145545 2.4705285,5.7539254 c 0,0.4522477 0.00107,0.4584458 0.1207122,0.6975915 0.1334148,0.2666806 0.3973068,0.542837 0.6342304,0.6637063 0.2323456,0.1185339 0.8400723,0.3123975 0.9813378,0.3130446 l 0.1295732,5.94e-4 z"
     id="path5" />
  <path
     style="fill:#ffc700;fill-opacity:1;stroke-width:0.0345528"
     d="M 4.358355,16.148633 C 4.34627,16.060463 4.336382,15.736909 4.336382,15.429627 c 0,-0.395002 -0.012655,-0.574582 -0.043191,-0.612918 C 4.269436,14.786886 4.1022866,14.727194 3.921748,14.684059 3.0828845,14.483634 2.4131983,14.173008 1.9044374,13.748353 0.80923531,12.834205 0.38857868,11.966993 0.30978758,10.460874 L 0.28674071,10.020325 H 1.1713175 2.0558943 v 0.291199 c 0,0.588156 0.1126675,1.104353 0.3210663,1.470996 0.1424207,0.250566 0.6591186,0.78145 0.9052016,0.930054 0.2119556,0.127996 0.7165215,0.328061 0.9246467,0.366632 l 0.1295732,0.02401 v -1.991718 c 0,-1.5637506 -0.00928,-1.9943734 -0.043191,-2.0040734 C 4.269436,9.1006328 4.0754141,9.0617235 3.8620317,9.0209629 3.3996945,8.9326469 2.6879462,8.7107758 2.3433695,8.5475554 1.8472683,8.3125605 1.2863419,7.817128 1.0255013,7.3835623 0.77280245,6.9635293 0.67419968,6.5200535 0.67449542,5.804878 0.67490494,4.8146325 0.9248501,4.19165 1.5634191,3.5892563 2.2031128,2.9858017 2.9757906,2.6217903 3.9735772,2.4538217 l 0.3455285,-0.058167 0.00931,-0.7486405 0.00931,-0.74864052 H 5.145351 c 0.7045705,0 0.8102974,0.006974 0.8285945,0.0546553 0.011535,0.0300604 0.020973,0.37755282 0.020973,0.77220552 v 0.7175503 l 0.3023374,0.079133 c 2.096923,0.5488454 3.2478621,1.8123049 3.3761644,3.706232 l 0.022822,0.3368903 H 8.8346561 7.9730691 L 7.9514736,6.457063 C 7.939596,6.3976753 7.9296082,6.292721 7.9292782,6.2238313 7.9283415,6.0283303 7.8371925,5.6450162 7.7424085,5.4379811 7.4823893,4.8700242 6.7325276,4.2882903 6.1072154,4.169417 L 5.9949187,4.1480691 v 1.5489457 c 0,0.8519201 0.00988,1.6434694 0.021955,1.7589986 l 0.021955,0.2100526 0.2458296,0.04011 c 1.3270343,0.2165237 2.3401794,0.6595782 2.97933,1.30288 0.1887743,0.1900002 0.2897826,0.3308135 0.4213536,0.5873984 0.2870678,0.5598286 0.3004992,0.6298636 0.2999733,1.5641146 l -4.571e-4,0.811992 -0.1110667,0.328252 c -0.3501419,1.034826 -1.1879126,1.821029 -2.3583118,2.213148 -0.2979361,0.09982 -0.7205126,0.19423 -1.2305551,0.274931 l -0.2455632,0.03885 -0.022014,0.282772 c -0.012108,0.155526 -0.022108,0.488795 -0.022222,0.740599 l -2.07e-4,0.457825 H 5.1876233 4.3803282 Z M 6.5477642,13.076922 C 7.2879774,12.879524 7.8196393,12.512613 8.0656994,12.029365 8.2237714,11.718921 8.2856145,11.134912 8.2023414,10.738997 8.1183089,10.339471 7.9193951,10.042231 7.5879476,9.820899 7.3468931,9.659929 6.4970838,9.365205 6.1950187,9.3378146 l -0.2001,-0.018144 v 1.7100964 c 0,0.940553 0.00999,1.805669 0.022199,1.922482 0.020925,0.2002 0.027368,0.21238 0.1122968,0.212298 0.049554,-4.8e-5 0.2378113,-0.03948 0.4183499,-0.08763 z M 4.3363821,5.8077041 c 0,-0.8916368 -0.00944,-1.6457527 -0.020973,-1.6758131 C 4.2831231,4.047756 4.1014264,4.064695 3.7603753,4.183634 3.1733209,4.3883659 2.7493593,4.7051363 2.5641514,5.0774139 2.4756394,5.2553282 2.4705284,5.292278 2.4705284,5.7543138 c 0,0.4755522 0.00284,0.494387 0.1052776,0.6993924 0.1228166,0.2457779 0.4194598,0.5614088 0.6290474,0.6693118 0.2348611,0.1209149 0.8247204,0.3034365 0.984679,0.3046915 l 0.1468496,0.00115 z"
     id="path6" />
  <path
     style="fill:#ffc700;fill-opacity:1;stroke-width:0.0345528"
     d="M 4.358355,16.148633 C 4.34627,16.060463 4.336382,15.735048 4.336382,15.425491 c 0,-0.444924 -0.010468,-0.5733 -0.049971,-0.612803 C 4.2589264,14.785204 4.091777,14.727373 3.9149677,14.684174 3.0746513,14.478866 2.4125379,14.1713 1.906598,13.751242 1.3404292,13.281178 0.97284041,12.835352 0.72495906,12.318101 0.46384516,11.773239 0.35294408,11.2749 0.30780384,10.443598 L 0.28481989,10.020325 H 1.1703571 2.0558943 v 0.291199 c 0,0.646588 0.1389393,1.193648 0.4019128,1.582495 0.2031046,0.30032 0.6687797,0.740177 0.932355,0.880661 0.2102051,0.112038 0.7899758,0.320848 0.8908491,0.320848 0.050151,0 0.055371,-0.187401 0.055371,-1.987872 0,-1.560419 -0.00929,-1.9906334 -0.043191,-2.0007076 C 4.269436,9.0998899 4.1022866,9.0672399 3.921748,9.0343933 3.5613272,8.9688192 2.9683522,8.8010299 2.5914634,8.6579728 2.292667,8.544558 1.9684434,8.3530851 1.6829206,8.1214255 1.5633033,8.0243739 1.4485575,7.9553988 1.4279298,7.9681474 1.4058718,7.9817799 1.3971552,7.9715571 1.4067659,7.943326 1.4157534,7.9169256 1.3591278,7.8219094 1.2809314,7.7321788 0.98442567,7.3919379 0.78574612,6.9612982 0.71057944,6.495935 0.69062714,6.3724085 0.67438934,6.0614329 0.67449542,5.804878 0.67490401,4.8168933 0.92080607,4.2020205 1.5596636,3.5915336 2.1842173,2.9947153 2.9647309,2.6252474 3.9563008,2.4570492 l 0.3628049,-0.061542 0.00931,-0.7491904 0.00931,-0.74919035 0.8199542,0.009262 0.8199546,0.009262 0.00929,0.76373835 0.00929,0.7637384 0.3016899,0.078962 C 8.074688,2.987133 9.1846273,3.9786481 9.5557995,5.4323866 9.6161457,5.6687388 9.68693,6.2214085 9.6909094,6.4872967 l 0.00116,0.077744 H 8.8322819 7.9724907 L 7.9516564,6.4872967 C 7.9401973,6.4445376 7.9303393,6.3395833 7.9297499,6.254065 7.9280568,6.0084112 7.8362837,5.6346538 7.7176458,5.3902439 7.5875354,5.1221981 7.1211155,4.6424464 6.8155277,4.4623407 6.5936787,4.3315883 6.274973,4.1994522 6.1072154,4.1686728 l -0.1122967,-0.020604 2.457e-4,1.5280996 c 1.351e-4,0.8404548 0.00983,1.6295723 0.021551,1.7535949 l 0.021305,0.2254953 0.5053806,0.097464 c 0.998421,0.1925484 1.888486,0.5593573 2.452726,1.010805 0.3393639,0.2715246 0.5206682,0.4947222 0.7141389,0.8791519 0.2603816,0.5173825 0.2755065,0.5997645 0.2755065,1.5006135 0,0.908339 -0.021668,1.030513 -0.2757639,1.554878 -0.5075326,1.04737 -1.5871946,1.768251 -3.0240329,2.019123 -0.69225,0.120866 -0.6356856,0.0925 -0.6613922,0.331619 -0.01219,0.113393 -0.023852,0.443287 -0.025915,0.733099 l -0.00375,0.526931 H 5.1876233 4.3803282 Z M 6.5410755,13.07831 C 7.291092,12.877375 7.8268411,12.501279 8.0835442,11.995496 8.2241263,11.718507 8.2812604,11.114211 8.2023414,10.738997 8.1082074,10.291444 7.8370591,9.9406567 7.425457,9.7339346 7.1134157,9.5772157 6.4612643,9.3681665 6.1988354,9.3407374 L 5.9910733,9.3190216 6.001634,11.198637 c 0.00581,1.033788 0.02314,1.899051 0.038515,1.922806 0.040356,0.06235 0.1388426,0.05387 0.5009264,-0.04313 z M 4.3363821,5.8077041 c 0,-0.8916368 -0.00944,-1.6457527 -0.020973,-1.6758131 C 4.2850228,4.0527063 4.1134465,4.0631604 3.8231946,4.1618815 3.3042863,4.3383737 2.886097,4.6044092 2.6829843,4.8872388 2.4910787,5.1544625 2.4705285,5.2392397 2.4705285,5.7636966 c 0,0.4617908 0.00373,0.4868029 0.1020552,0.6835285 C 2.6860973,6.6743493 2.9667108,6.977027 3.180557,7.1030025 3.3807721,7.220948 4.0164138,7.4251667 4.1895325,7.4271659 l 0.1468496,0.0017 z"
     id="path7" />
</svg>
