<?xml version="1.0" encoding="UTF-8" standalone="no"?>
<svg
   width="11"
   height="17"
   version="1.1"
   id="svg1"
   xmlns="http://www.w3.org/2000/svg"
   xmlns:svg="http://www.w3.org/2000/svg">
  <defs
     id="defs1" />
  <path
     fill="#9EBBBD"
     d="m 6.016,16.328 v -1.464 c 1.232,-0.08 2.22,-0.444 2.964,-1.092 0.744,-0.648 1.116,-1.508 1.116,-2.58 V 11.048 C 10.096,10.056 9.748,9.276 9.052,8.708 8.356,8.14 7.344,7.776 6.016,7.616 V 4.184 c 0.56,0.144 1.012,0.4 1.356,0.768 0.344,0.368 0.516,0.816 0.516,1.344 V 6.584 H 9.712 V 6.152 C 9.712,5.704 9.624,5.276 9.448,4.868 A 3.783,3.783 0 0 0 8.704,3.752 4.251,4.251 0 0 0 7.54,2.9 5.324,5.324 0 0 0 6.016,2.408 V 0.872 H 4.288 V 2.36 A 5.532,5.532 0 0 0 2.872,2.684 C 2.424,2.852 2.032,3.076 1.696,3.356 1.36,3.636 1.092,3.972 0.892,4.364 c -0.2,0.392 -0.3,0.844 -0.3,1.356 v 0.144 c 0,0.96 0.316,1.708 0.948,2.244 0.632,0.536 1.548,0.884 2.748,1.044 v 3.912 C 3.584,12.904 3.04,12.592 2.656,12.128 2.272,11.664 2.08,11.048 2.08,10.28 V 9.992 H 0.256 v 0.576 c 0,0.464 0.08,0.924 0.24,1.38 0.16,0.456 0.404,0.88 0.732,1.272 0.328,0.392 0.744,0.728 1.248,1.008 0.504,0.28 1.108,0.476 1.812,0.588 v 1.512 z M 4.288,7.424 C 3.6,7.296 3.124,7.092 2.86,6.812 2.596,6.532 2.464,6.168 2.464,5.72 2.464,5.256 2.64,4.888 2.992,4.616 3.344,4.344 3.776,4.168 4.288,4.088 Z m 1.728,5.712 V 9.344 c 0.768,0.128 1.328,0.328 1.68,0.6 0.352,0.272 0.528,0.688 0.528,1.248 0,0.544 -0.196,0.984 -0.588,1.32 -0.392,0.336 -0.932,0.544 -1.62,0.624 z"
     id="path1"
     style="fill:#00294d;fill-opacity:1" />
</svg>
