<?xml version="1.0" encoding="UTF-8" standalone="no"?>
<svg
   viewBox="0 0 147456 262144"
   version="1.1"
   id="svg1"
   width="147456"
   height="262144"
   xmlns="http://www.w3.org/2000/svg"
   xmlns:svg="http://www.w3.org/2000/svg">
  <defs
     id="defs1" />
  <!--!Font Awesome Free 6.5.1 by @fontawesome - https://fontawesome.com License - https://fontawesome.com/license/free Copyright 2024 Fonticons, Inc.-->
  <path
     d="m 374.6,118.6 c 12.5,-12.5 12.5,-32.8 0,-45.3 -12.5,-12.5 -32.8,-12.5 -45.3,0 l -320,320 c -12.5,12.5 -12.5,32.8 0,45.3 12.5,12.5 32.8,12.5 45.3,0 z M 128,128 a 64,64 0 1 0 -128,0 64,64 0 1 0 128,0 z m 256,256 a 64,64 0 1 0 -128,0 64,64 0 1 0 128,0 z"
     id="path1" />
  <path
     style="opacity:0.86;fill:#9ebbbd;stroke:#3b7fa6;stroke-width:1.03854;stroke-opacity:0"
     d="M 23.88641,446.22002 C 16.862988,443.89364 13.437728,441.67239 8.6329586,436.32833 0.97745899,427.81357 -1.2486128,417.23185 2.2377792,405.92859 3.8970219,400.54915 9.6365888,394.66864 168.66375,235.41582 292.60697,111.29672 334.65636,69.792359 338.56389,67.717853 c 7.06954,-3.753209 18.2031,-3.890266 26.19929,-0.32252 10.8406,4.836866 18.25307,16.187115 18.38402,28.150306 C 383.30332,109.80729 397.07676,94.92838 215.1145,277.06465 84.223943,408.08037 49.834396,441.9661 45.69574,444.00138 c -6.388068,3.1415 -16.054447,4.12484 -21.80933,2.21864 z"
     id="path2" />
  <path
     style="opacity:0.86;fill:#9ebbbd;stroke:#3b7fa6;stroke-width:1.03854;stroke-opacity:0"
     d="m 306.96323,445.9977 c -21.83213,-4.73461 -40.55992,-21.81513 -47.2948,-43.13483 -3.14295,-9.94918 -3.59165,-24.85981 -1.04259,-34.64628 4.41393,-16.94626 17.92318,-33.30489 33.72304,-40.83596 10.47636,-4.9936 16.91811,-6.47191 28.20142,-6.47191 30.02871,0 55.58742,21.46365 61.68366,51.8006 8.66142,43.10205 -31.98291,82.67596 -75.27073,73.28838 z"
     id="path3" />
  <path
     style="opacity:0.86;fill:#9ebbbd;stroke:#3b7fa6;stroke-width:1.03854;stroke-opacity:0"
     d="m 305.03929,445.02122 c -21.86087,-6.13282 -40.0749,-24.25181 -45.53834,-45.30074 -2.74143,-10.5619 -2.30434,-25.62053 1.02084,-35.16966 6.74884,-19.38105 23.60119,-35.27635 43.49015,-41.02033 9.41684,-2.7196 24.34467,-2.31636 34.63339,0.93554 36.04845,11.39366 54.23641,52.86544 37.83753,86.27636 -7.01869,14.29983 -19.64781,25.85129 -34.80335,31.83353 -7.18656,2.83669 -9.85072,3.32702 -19.73225,3.63162 -7.89514,0.24338 -13.11792,-0.12307 -16.90797,-1.18632 z"
     id="path4" />
  <path
     style="opacity:0.86;fill:#9ebbbd;stroke:#3b7fa6;stroke-width:1.03854;stroke-opacity:0"
     d="M 48.292089,189.4211 C 15.501255,180.61778 -4.8975574,147.76333 2.0549003,114.9512 4.557091,103.14211 10.018282,93.253154 19.060853,84.157355 23.4285,79.763998 29.572414,74.726247 32.713996,72.962354 65.3498,54.638432 105.80055,67.866549 121.43089,101.97436 c 4.29864,9.38031 5.79021,16.24213 5.79021,26.63747 0,28.22057 -20.25651,53.79003 -48.250655,60.90603 -7.761135,1.97284 -23.150217,1.92431 -30.678356,-0.0968 z"
     id="path5" />
  <path
     style="opacity:0.86;fill:#9ebbbd;stroke:#3b7fa6;stroke-width:1.03854;stroke-opacity:0"
     d="m 302.21501,443.6426 c -37.69114,-14.03106 -54.54155,-52.90048 -37.6036,-86.74147 11.16679,-22.31058 35.82776,-36.67782 59.29167,-34.54275 18.40801,1.67502 32.36184,8.78554 43.52292,22.17817 10.4669,12.55965 14.7674,25.73133 13.98244,42.82572 -0.58824,12.81035 -2.83871,19.77643 -9.8084,30.36085 -6.38488,9.69633 -14.57787,16.68331 -26.28564,22.41643 l -9.86612,4.8313 -14.02029,0.3024 c -11.63704,0.251 -14.90296,-0.0262 -19.21298,-1.63065 z"
     id="path6" />
  <path
     style="opacity:0.86;fill:#9ebbbd;stroke:#3b7fa6;stroke-width:1.03854;stroke-opacity:0"
     d="M 21.295254,444.76085 C 14.495032,442.36141 5.5184176,433.03537 3.1523062,425.91168 0.40753911,417.64795 1.326103,407.42037 5.2822027,402.19673 11.512197,393.97062 67.283083,337.52976 197.98634,207.17761 272.44802,132.91597 335.3415,70.823676 337.74965,69.194734 c 3.29197,-2.226782 6.01651,-3.093198 10.97968,-3.491593 18.32066,-1.470607 32.38216,10.984605 33.73416,29.880603 0.61663,8.618146 -0.26393,10.260356 -13.53543,25.243006 -10.64111,12.01311 -263.69907,265.71766 -297.53754,298.29778 -22.671358,21.82828 -25.731497,24.4165 -30.565778,25.85213 -6.710458,1.99279 -13.482211,1.91796 -19.529488,-0.21581 z"
     id="path7" />
  <path
     style="opacity:0.86;fill:#9ebbbd;stroke:#3b7fa6;stroke-width:1.03854;stroke-opacity:0"
     d="M 46.185643,188.10344 C 26.772652,181.89004 11.285127,166.76168 4.5901772,147.47262 1.3824801,138.2308 0.69851983,122.48023 3.1019425,113.20081 8.7074592,91.558374 28.33425,71.999206 49.437716,67.024684 81.871615,59.379346 114.66105,79.087428 124.53851,112.164 c 2.20163,7.37258 2.24644,23.39854 0.0883,31.57797 -5.41257,20.51392 -23.17547,38.51221 -44.068846,44.6529 -7.890989,2.3192 -26.714355,2.15961 -34.372311,-0.29143 z"
     id="path8" />
  <path
     style="opacity:0.86;fill:#9ebbbd;stroke:#3b7fa6;stroke-width:1.03854;stroke-opacity:0"
     d="m 302.02084,443.57793 c -10.2736,-3.80998 -16.46695,-7.9013 -25.29719,-16.71134 -6.36046,-6.3459 -9.80749,-10.78244 -12.16714,-15.65985 -8.53784,-17.64777 -8.62492,-36.06932 -0.25258,-53.42986 4.95853,-10.28181 12.28341,-18.58933 22.29408,-25.28488 11.25609,-7.52853 19.31604,-9.96961 32.7529,-9.9197 18.9138,0.0702 32.26803,5.71178 44.88693,18.96264 11.63633,12.21908 17.42545,26.15711 17.42545,41.95395 0,10.63003 -1.49153,17.64927 -5.57046,26.21496 -6.64159,13.94727 -16.67978,23.63787 -32.33624,31.21656 -8.22406,3.98096 -8.4505,4.02495 -22.3286,4.33849 -11.80478,0.26671 -14.87152,0.001 -19.40715,-1.68097 z"
     id="path9" />
  <path
     style="opacity:0.86;fill:#9ebbbd;stroke:#3b7fa6;stroke-width:1.03854;stroke-opacity:0"
     d="M 19.531866,443.37636 C 14.007978,440.64206 7.1828685,433.27391 4.4488973,427.09332 1.8690318,421.26111 1.6007096,411.2852 3.8803609,405.95579 6.4521144,399.94349 37.924126,367.85075 191.32267,214.8165 285.59579,120.76725 337.14359,70.062933 339.92874,68.642049 c 3.18268,-1.623676 6.18478,-2.172944 11.83516,-2.165372 9.61082,0.01288 16.33704,2.953731 22.33155,9.763853 5.22163,5.93209 7.56784,12.394393 7.56784,20.844596 0,8.223794 -2.40792,12.089274 -17.26754,27.719894 -18.79923,19.77467 -282.2528,283.48581 -300.374915,300.66858 -9.838165,9.32822 -18.796635,16.92735 -21.290061,18.05955 -6.11338,2.77593 -17.428655,2.69945 -23.198908,-0.15679 z"
     id="path10" />
  <path
     style="opacity:0.86;fill:#9ebbbd;stroke:#3b7fa6;stroke-width:1.03854;stroke-opacity:0"
     d="M 53.737035,189.00275 C 32.422528,186.69619 11.007291,167.40513 4.2542209,144.42814 1.8118198,136.11799 2.0187691,118.40521 4.6581009,109.86004 8.5992448,97.100103 18.606584,84.340393 31.366255,75.806205 c 10.574464,-7.072633 18.89289,-9.562585 31.984658,-9.573957 8.36884,-0.0073 11.998639,0.51422 18.693712,2.685713 19.111925,6.198801 34.654495,21.686057 41.183635,41.037079 2.97416,8.81478 3.18519,25.46574 0.4426,34.92123 -5.33797,18.40338 -21.83562,35.64603 -40.138886,41.95149 -6.825766,2.35147 -19.568414,3.28167 -29.794939,2.17499 z"
     id="path11" />
</svg>
