<?xml version="1.0" encoding="UTF-8" standalone="no"?>
<svg
   id="Layer_1"
   data-name="Layer 1"
   viewBox="0 0 24 24"
   width="512"
   height="512"
   version="1.1"
   xmlns="http://www.w3.org/2000/svg"
   xmlns:svg="http://www.w3.org/2000/svg">
  <defs
     id="defs1" />
  <path
     d="m 1.5,24 c -0.384,0 -0.768,-0.146 -1.061,-0.439 -0.586,-0.586 -0.586,-1.535 0,-2.121 l 21,-21.001 c 0.586,-0.586 1.535,-0.586 2.121,0 0.586,0.585 0.586,1.536 0,2.121 L 2.561,23.561 C 2.268,23.854 1.884,24 1.5,24 Z M 9,4.5 C 9,2.019 6.981,0 4.5,0 2.019,0 0,2.019 0,4.5 0,6.981 2.019,9 4.5,9 6.981,9 9,6.981 9,4.5 Z m -3,0 C 6,5.327 5.327,6 4.5,6 3.673,6 3,5.327 3,4.5 3,3.673 3.673,3 4.5,3 5.327,3 6,3.673 6,4.5 Z m 18,15 C 24,17.019 21.981,15 19.5,15 17.019,15 15,17.019 15,19.5 c 0,2.481 2.019,4.5 4.5,4.5 2.481,0 4.5,-2.019 4.5,-4.5 z m -3,0 C 21,20.327 20.327,21 19.5,21 18.673,21 18,20.327 18,19.5 18,18.673 18.673,18 19.5,18 c 0.827,0 1.5,0.673 1.5,1.5 z"
     id="path1" />
  <path
     style="fill:#ffc700;fill-opacity:1;stroke-width:0.0487805"
     d="M 1.2644121,23.946047 C 0.8024917,23.877518 0.37187056,23.540998 0.15901733,23.082208 0.0565422,22.86133 0.04139865,22.767457 0.05671712,22.448062 0.06915648,22.188696 0.10795764,22.005526 0.18263054,21.853658 0.26272045,21.690773 3.0561383,18.870212 11.011136,10.919932 21.22655,0.7105747 21.743778,0.20183365 21.987876,0.12330488 c 0.76508,-0.2461344 1.527083,0.0788864 1.852764,0.79026857 C 23.999146,1.2597964 23.985956,1.8058044 23.810728,2.1517514 23.645967,2.477034 2.3991339,23.718703 2.1253495,23.831859 1.8601656,23.941461 1.5292955,23.985345 1.2644121,23.946047 Z"
     id="path2" />
  <path
     style="fill:#ffc700;fill-opacity:1;stroke-width:0.0487805"
     d="m 19.097561,23.948325 c -1.856586,-0.160727 -3.459031,-1.527397 -3.931777,-3.353278 -0.126685,-0.489295 -0.169476,-1.250449 -0.0965,-1.716575 0.08298,-0.53002 0.315781,-1.187131 0.579105,-1.63457 0.310607,-0.527781 1.067736,-1.28491 1.595517,-1.595517 0.747363,-0.439834 1.637161,-0.657319 2.487805,-0.608073 2.009387,0.11633 3.655913,1.50561 4.127805,3.482892 0.08704,0.364683 0.09876,0.532676 0.07922,1.135332 -0.02502,0.771865 -0.131386,1.21608 -0.438023,1.829269 -0.302927,0.605772 -0.94337,1.338173 -1.500712,1.716193 -0.548748,0.372191 -1.356813,0.674091 -1.936386,0.72345 -0.182549,0.01555 -0.386785,0.03421 -0.453858,0.04146 -0.06707,0.0073 -0.297561,-0.002 -0.512195,-0.02059 z m 1.025176,-3.06528 C 21.276376,20.374243 21.3175,18.714901 20.19043,18.151697 19.935549,18.024332 19.830817,18 19.537484,18 19.036296,18 18.762744,18.108075 18.43541,18.43541 18.108075,18.762744 18,19.036296 18,19.537484 c 0,0.292499 0.02442,0.398246 0.150025,0.649599 0.36174,0.723905 1.221567,1.027247 1.972712,0.695962 z"
     id="path3" />
  <path
     style="fill:#ffc700;fill-opacity:1;stroke-width:0.0487805"
     d="M 3.6943331,8.8983642 C 2.2560967,8.638343 0.9652042,7.6028208 0.38780224,6.2459466 0.11555315,5.6061703 0.03542068,5.1388092 0.06126472,4.3414634 0.08068219,3.7423912 0.10475377,3.5706924 0.21855848,3.2195122 0.68415703,1.7827612 1.7392143,0.70416478 3.1219512,0.25134244 3.6097761,0.09158826 3.9273396,0.04458979 4.5216555,0.04419026 6.2663419,0.04301739 7.8233367,1.051947 8.5696758,2.6672997 9.1788253,3.9857248 9.0777834,5.5861931 8.3072869,6.8234278 7.3301456,8.392485 5.4855417,9.2222002 3.6943331,8.8983642 Z M 5.0522859,5.9182486 C 5.3792241,5.8070681 5.8070681,5.3792241 5.9182486,5.0522859 5.9647439,4.9155633 6,4.6612174 6,4.4625163 6,3.8662907 5.6710233,3.3554258 5.1244298,3.1028503 4.8005977,2.9532108 4.1589634,2.9604407 3.8536585,3.1171693 2.713532,3.7024544 2.6879395,5.2878169 3.80957,5.8483027 4.0644509,5.9756677 4.1691825,6 4.4625163,6 4.6612174,6 4.9155633,5.9647439 5.0522859,5.9182486 Z"
     id="path4" />
  <path
     style="fill:#fff455;fill-opacity:1;stroke-width:0.0487805"
     d="M 1.195122,23.907483 C 0.78836827,23.802363 0.3946661,23.475727 0.19570365,23.078312 0.10441341,22.895965 0.09088802,22.800591 0.10516584,22.439884 0.1200408,22.064092 0.13857917,21.991332 0.26804806,21.800597 0.41431601,21.585113 19.138161,2.8193216 20.89724,1.12519 c 0.513519,-0.49456005 1.010131,-0.9315926 1.103582,-0.97118343 0.09345,-0.0395908 0.312593,-0.0725218 0.486983,-0.07317996 0.558501,-0.0021078 1.057121,0.31350162 1.298037,0.82161244 0.136268,0.28739975 0.160256,0.84986075 0.04773,1.11916875 -0.09432,0.2257316 -3.588667,3.7685459 -11.866126,12.0307012 -8.1534231,8.13835 -9.7327304,9.692327 -9.9363407,9.776978 -0.2011959,0.08365 -0.6518033,0.125796 -0.8359863,0.0782 z"
     id="path5" />
  <path
     style="fill:#fff455;fill-opacity:1;stroke-width:0.0487805"
     d="M 3.8048781,8.895952 C 3.0607201,8.7531098 2.3338428,8.4237197 1.7580429,7.9684125 1.0712524,7.4253412 0.56759691,6.7059647 0.26036798,5.8292681 0.1291971,5.4549637 0.12357732,5.4011677 0.12278122,4.5121951 0.12185914,3.4825379 0.16067753,3.2941065 0.52474809,2.5609756 1.7281695,0.13763952 4.758562,-0.67365881 6.9802463,0.83270592 7.8244158,1.4050766 8.4978783,2.3360661 8.783925,3.3260977 8.9323209,3.8397095 8.9661853,4.7762067 8.8560216,5.3198878 8.5807917,6.6782034 7.7101547,7.8248194 6.4878047,8.4387942 5.7976814,8.7854372 5.3797392,8.8892306 4.6097561,8.9051986 4.2341463,8.9129878 3.8719512,8.9088267 3.8048781,8.895952 Z M 5.2489256,5.8471073 C 5.4901444,5.6865023 5.6863331,5.490398 5.8466077,5.2496808 5.9558259,5.0856455 5.9752387,4.9965562 5.9918428,4.5831613 6.0090323,4.1551979 5.9985188,4.0787037 5.8899033,3.841457 5.7494353,3.5346333 5.4986827,3.2664683 5.2060214,3.1100866 5.0316248,3.0168987 4.9251202,3 4.5121951,3 4.062479,3 4.0039586,3.0113165 3.7627209,3.1449315 3.1160329,3.5031144 2.8090453,4.323049 3.0532696,5.0398078 c 0.1019468,0.2991975 0.4463958,0.6764892 0.764886,0.837817 0.234902,0.1189875 0.2938846,0.127869 0.7478433,0.1126135 0.4335761,-0.014571 0.5156838,-0.031779 0.6829267,-0.143131 z"
     id="path6" />
  <path
     style="fill:#fff455;fill-opacity:1;stroke-width:0.0487805"
     d="m 18.902439,23.905341 c -1.722337,-0.284686 -3.08068,-1.428688 -3.627234,-3.054871 -0.140299,-0.417434 -0.201239,-0.845749 -0.201666,-1.417386 -0.0014,-1.909002 1.369567,-3.666902 3.2932,-4.222577 0.52302,-0.151083 1.666769,-0.16146 2.193485,-0.0199 1.386199,0.372552 2.523532,1.362075 3.048299,2.652134 0.231096,0.568111 0.293916,0.913009 0.293916,1.613653 0,1.370069 -0.354754,2.219996 -1.338383,3.206529 -0.585838,0.587569 -1.196973,0.935788 -2.005041,1.142458 -0.423696,0.108362 -1.289622,0.160614 -1.656576,0.09996 z m 1.160577,-2.978902 C 21.035662,20.562526 21.347932,19.264882 20.649735,18.48832 20.333695,18.136807 20.024157,18 19.544862,18 18.973276,18 18.808484,18.064944 18.436714,18.436714 18.064944,18.808484 18,18.973276 18,19.544862 c 0,0.318375 0.02236,0.432067 0.125775,0.6396 0.151725,0.304473 0.532445,0.659386 0.814448,0.759241 0.304038,0.107657 0.809691,0.09988 1.122793,-0.01726 z"
     id="path7" />
</svg>
