<?xml version="1.0" encoding="UTF-8" standalone="no"?>
<svg
   viewBox="0 0 384 512"
   version="1.1"
   id="svg1"
   sodipodi:docname="percent.svg"
   inkscape:export-filename="percent.svg"
   inkscape:export-xdpi="96"
   inkscape:export-ydpi="96"
   inkscape:version="1.3.2 (091e20ef0f, 2023-11-25)"
   xmlns:inkscape="http://www.inkscape.org/namespaces/inkscape"
   xmlns:sodipodi="http://sodipodi.sourceforge.net/DTD/sodipodi-0.dtd"
   xmlns="http://www.w3.org/2000/svg"
   xmlns:svg="http://www.w3.org/2000/svg">
  <defs
     id="defs1" />
  <sodipodi:namedview
     id="namedview1"
     pagecolor="#ffffff"
     bordercolor="#999999"
     borderopacity="1"
     inkscape:showpageshadow="2"
     inkscape:pageopacity="0"
     inkscape:pagecheckerboard="0"
     inkscape:deskcolor="#d1d1d1"
     inkscape:zoom="0.96289062"
     inkscape:cx="191.61055"
     inkscape:cy="256"
     inkscape:window-width="1366"
     inkscape:window-height="699"
     inkscape:window-x="0"
     inkscape:window-y="32"
     inkscape:window-maximized="1"
     inkscape:current-layer="svg1" />
  <!--!Font Awesome Free 6.5.1 by @fontawesome - https://fontawesome.com License - https://fontawesome.com/license/free Copyright 2024 Fonticons, Inc.-->
  <path
     d="M374.6 118.6c12.5-12.5 12.5-32.8 0-45.3s-32.8-12.5-45.3 0l-320 320c-12.5 12.5-12.5 32.8 0 45.3s32.8 12.5 45.3 0l320-320zM128 128A64 64 0 1 0 0 128a64 64 0 1 0 128 0zM384 384a64 64 0 1 0 -128 0 64 64 0 1 0 128 0z"
     id="path1" />
  <path
     style="opacity:0.86;fill:#9ebbbd;stroke:#3b7fa6;stroke-width:1.03854;stroke-opacity:0"
     d="M 23.88641,446.22002 C 16.862988,443.89364 13.437728,441.67239 8.6329586,436.32833 0.97745899,427.81357 -1.2486128,417.23185 2.2377792,405.92859 3.8970219,400.54915 9.6365888,394.66864 168.66375,235.41582 292.60697,111.29672 334.65636,69.792359 338.56389,67.717853 c 7.06954,-3.753209 18.2031,-3.890266 26.19929,-0.32252 10.8406,4.836866 18.25307,16.187115 18.38402,28.150306 C 383.30332,109.80729 397.07676,94.92838 215.1145,277.06465 84.223943,408.08037 49.834396,441.9661 45.69574,444.00138 c -6.388068,3.1415 -16.054447,4.12484 -21.80933,2.21864 z"
     id="path2" />
  <path
     style="opacity:0.86;fill:#9ebbbd;stroke:#3b7fa6;stroke-width:1.03854;stroke-opacity:0"
     d="M 21.295254,444.76085 C 14.495032,442.36141 5.5184176,433.03537 3.1523062,425.91168 0.40753911,417.64795 1.326103,407.42037 5.2822027,402.19673 11.512197,393.97062 67.283083,337.52976 197.98634,207.17761 272.44802,132.91597 335.3415,70.823676 337.74965,69.194734 c 3.29197,-2.226782 6.01651,-3.093198 10.97968,-3.491593 18.32066,-1.470607 32.38216,10.984605 33.73416,29.880603 0.61663,8.618146 -0.26393,10.260356 -13.53543,25.243006 -10.64111,12.01311 -263.69907,265.71766 -297.53754,298.29778 -22.671358,21.82828 -25.731497,24.4165 -30.565778,25.85213 -6.710458,1.99279 -13.482211,1.91796 -19.529488,-0.21581 z"
     id="path3" />
  <path
     style="opacity:0.86;fill:#9ebbbd;stroke:#3b7fa6;stroke-width:1.03854;stroke-opacity:0"
     d="M 48.292089,189.4211 C 15.501255,180.61778 -4.8975574,147.76333 2.0549003,114.9512 4.557091,103.14211 10.018282,93.253154 19.060853,84.157355 23.4285,79.763998 29.572414,74.726247 32.713996,72.962354 65.3498,54.638432 105.80055,67.866549 121.43089,101.97436 c 4.29864,9.38031 5.79021,16.24213 5.79021,26.63747 0,28.22057 -20.25651,53.79003 -48.250655,60.90603 -7.761135,1.97284 -23.150217,1.92431 -30.678356,-0.0968 z"
     id="path4" />
  <path
     style="opacity:0.86;fill:#9ebbbd;stroke:#3b7fa6;stroke-width:1.03854;stroke-opacity:0"
     d="M 46.185643,188.10344 C 26.772652,181.89004 11.285127,166.76168 4.5901772,147.47262 1.3824801,138.2308 0.69851983,122.48023 3.1019425,113.20081 8.7074592,91.558374 28.33425,71.999206 49.437716,67.024684 81.871615,59.379346 114.66105,79.087428 124.53851,112.164 c 2.20163,7.37258 2.24644,23.39854 0.0883,31.57797 -5.41257,20.51392 -23.17547,38.51221 -44.068846,44.6529 -7.890989,2.3192 -26.714355,2.15961 -34.372311,-0.29143 z"
     id="path5" />
  <path
     style="opacity:0.86;fill:#9ebbbd;stroke:#3b7fa6;stroke-width:1.03854;stroke-opacity:0"
     d="M 53.737035,189.00275 C 32.422528,186.69619 11.007291,167.40513 4.2542209,144.42814 1.8118198,136.11799 2.0187691,118.40521 4.6581009,109.86004 8.5992448,97.100103 18.606584,84.340393 31.366255,75.806205 c 10.574464,-7.072633 18.89289,-9.562585 31.984658,-9.573957 8.36884,-0.0073 11.998639,0.51422 18.693712,2.685713 19.111925,6.198801 34.654495,21.686057 41.183635,41.037079 2.97416,8.81478 3.18519,25.46574 0.4426,34.92123 -5.33797,18.40338 -21.83562,35.64603 -40.138886,41.95149 -6.825766,2.35147 -19.568414,3.28167 -29.794939,2.17499 z"
     id="path6" />
  <path
     style="opacity:0.86;fill:#9ebbbd;stroke:#3b7fa6;stroke-width:1.03854;stroke-opacity:0"
     d="M 54.523327,189.00694 C 31.323339,186.48858 8.4963925,165.13335 3.5381061,141.30888 1.7908099,132.91315 2.8574838,114.05921 5.4622085,107.2995 8.4651927,99.506244 16.431632,88.022513 22.650883,82.521793 30.16848,75.872729 40.421808,69.964835 47.731381,68.070591 c 9.933757,-2.57429 25.092178,-2.136148 34.419295,0.994862 15.928013,5.346858 29.858094,17.341438 37.051074,31.903057 5.21135,10.54997 6.26574,15.29819 6.17555,27.81039 -0.0948,13.15167 -2.40387,21.53397 -8.55261,31.04726 -14.16844,21.92133 -35.807567,32.05668 -62.301363,29.18078 z"
     id="path7" />
  <path
     style="opacity:0.86;fill:#9ebbbd;stroke:#3b7fa6;stroke-width:1.03854;stroke-opacity:0"
     d="M 55.042596,189.06658 C 46.421957,188.04447 39.105348,185.42804 32.000667,180.82674 18.845692,172.30701 7.6318691,157.25372 4.059178,143.31846 1.6887443,134.0726 2.5029136,115.13718 5.6220774,106.96957 12.582612,88.743233 32.916265,70.814946 50.384717,67.502122 c 8.276225,-1.569554 22.727274,-1.260897 29.134698,0.622281 13.79914,4.055647 28.074715,14.350765 35.569205,25.651448 8.25385,12.445699 11.32445,25.085669 9.95766,40.990189 -0.89661,10.43334 -3.05824,17.07381 -8.08722,24.84384 -14.17175,21.89602 -36.41849,32.47989 -61.916464,29.4567 z"
     id="path8" />
  <path
     style="opacity:0.86;fill:#9ebbbd;stroke:#3b7fa6;stroke-width:1.03854;stroke-opacity:0"
     d="M 19.531866,443.37636 C 14.007978,440.64206 7.1828685,433.27391 4.4488973,427.09332 1.8690318,421.26111 1.6007096,411.2852 3.8803609,405.95579 6.4521144,399.94349 37.924126,367.85075 191.32267,214.8165 285.59579,120.76725 337.14359,70.062933 339.92874,68.642049 c 3.18268,-1.623676 6.18478,-2.172944 11.83516,-2.165372 9.61082,0.01288 16.33704,2.953731 22.33155,9.763853 5.22163,5.93209 7.56784,12.394393 7.56784,20.844596 0,8.223794 -2.40792,12.089274 -17.26754,27.719894 -18.79923,19.77467 -282.2528,283.48581 -300.374915,300.66858 -9.838165,9.32822 -18.796635,16.92735 -21.290061,18.05955 -6.11338,2.77593 -17.428655,2.69945 -23.198908,-0.15679 z"
     id="path9" />
  <path
     style="opacity:0.86;fill:#9ebbbd;stroke:#3b7fa6;stroke-width:1.03854;stroke-opacity:0"
     d="M 19.143533,442.96551 C 13.354529,439.94919 7.2084078,433.33165 4.4915051,427.18964 1.8760058,421.27687 1.7702212,410.72016 4.2736075,405.44466 6.9626754,399.77787 22.94197,383.47927 166.08554,240.39932 325.67446,80.881332 337.62403,69.186251 342.75427,67.493119 c 5.04801,-1.665993 17.63598,-0.853205 22.01873,1.421719 10.20834,5.298773 15.94496,14.483549 16.63301,26.630801 0.42143,7.440051 0.28585,8.021311 -3.02601,12.972831 -1.90697,2.85107 -9.75556,11.73059 -17.44129,19.73225 C 338.34195,151.7763 68.741543,421.28767 57.576045,431.51318 44.289163,443.68149 40.77333,445.54761 31.252476,445.48511 c -5.670698,-0.0372 -8.457683,-0.61714 -12.108943,-2.5196 z"
     id="path10" />
  <path
     style="opacity:0.86;fill:#9ebbbd;stroke:#3b7fa6;stroke-width:1.03854;stroke-opacity:0"
     d="M 19.732252,443.08994 C 13.798135,440.32072 7.4422708,433.77622 4.5929212,427.50132 1.8796321,421.52604 1.9074575,410.45217 4.6492651,405.07779 7.7128138,399.07274 23.57618,382.87867 161.36464,245.09533 309.38086,97.084636 337.24471,69.755534 342.20877,67.721893 c 4.61389,-1.890186 18.0039,-1.158766 22.63575,1.236463 9.71211,5.022328 15.77191,14.42039 16.58661,25.723969 0.75299,10.447395 -1.18112,13.507255 -22.43129,35.487425 -29.15878,30.16047 -285.713805,286.68903 -299.297237,299.26636 -6.785775,6.28316 -14.349017,12.46228 -16.807206,13.73139 -6.275209,3.23973 -16.125267,3.20675 -23.163145,-0.0776 z"
     id="path11" />
  <path
     style="opacity:0.86;fill:#9ebbbd;stroke:#3b7fa6;stroke-width:1.03854;stroke-opacity:0"
     d="M 19.745862,443.38554 C 14.012373,440.52587 8.2210016,434.60353 5.1690597,428.47907 1.8690496,421.85681 1.5594967,410.57829 4.5250383,405.01422 7.6856719,399.08411 26.982404,379.41364 164.60852,241.83024 323.72502,82.763106 337.58592,69.198825 342.75991,67.491257 c 5.04243,-1.664151 17.63309,-0.849917 22.01309,1.423581 9.73442,5.052774 15.84193,14.443928 16.6458,25.595225 0.62481,8.667267 -0.79251,12.046497 -9.18298,21.894507 -8.16803,9.58693 -295.448718,297.37321 -312.481582,313.03154 -6.834723,6.28316 -14.429608,12.46228 -16.877522,13.73139 -5.96521,3.09261 -17.15598,3.19811 -23.130854,0.21804 z"
     id="path12" />
  <path
     style="opacity:0.86;fill:#9ebbbd;stroke:#3b7fa6;stroke-width:1.03854;stroke-opacity:0"
     d="M 21.469262,444.2156 C 16.336606,442.57315 8.2633325,434.76669 5.1800944,428.46478 2.0357774,422.03803 1.4737124,411.80472 3.9407391,405.9003 6.1504777,400.61165 20.333394,386.13139 166.02119,240.42191 316.44606,89.974649 336.98557,69.840116 342.19878,67.718074 c 5.14406,-2.093891 17.94282,-1.216976 23.36714,1.601016 9.03374,4.693117 15.07209,14.28712 15.85489,25.190973 0.62199,8.663917 -0.79462,12.043847 -9.17654,21.894507 -8.32784,9.78711 -281.803435,283.94776 -306.816278,307.58486 -10.304014,9.73728 -20.55809,18.52562 -22.84787,19.58197 -4.665264,2.15225 -15.376796,2.47911 -21.11086,0.6442 z"
     id="path13" />
  <path
     style="opacity:0.86;fill:#9ebbbd;stroke:#3b7fa6;stroke-width:1.03854;stroke-opacity:0"
     d="M 19.531866,443.37636 C 14.056842,440.66625 7.1893618,433.28859 4.5159749,427.24495 2.0581741,421.68869 1.7725286,411.08955 3.9407391,405.9003 6.1616675,400.58486 20.513711,385.9354 168.09447,238.34483 319.29925,87.129996 336.93309,69.847815 342.19878,67.712493 c 5.18889,-2.104173 17.93961,-1.206651 23.50029,1.654184 9.59118,4.934419 15.96422,16.180889 15.96422,28.171975 0,7.708858 -2.64001,11.878548 -17.26346,27.266368 -18.97408,19.96586 -299.160568,299.96667 -308.990011,308.78524 -5.093381,4.56958 -10.998404,9.11392 -13.122275,10.09853 -5.640136,2.61473 -17.161712,2.45654 -22.755678,-0.31243 z"
     id="path14" />
  <path
     style="opacity:0.86;fill:#9ebbbd;stroke:#3b7fa6;stroke-width:1.03854;stroke-opacity:0"
     d="m 306.96323,445.9977 c -21.83213,-4.73461 -40.55992,-21.81513 -47.2948,-43.13483 -3.14295,-9.94918 -3.59165,-24.85981 -1.04259,-34.64628 4.41393,-16.94626 17.92318,-33.30489 33.72304,-40.83596 10.47636,-4.9936 16.91811,-6.47191 28.20142,-6.47191 30.02871,0 55.58742,21.46365 61.68366,51.8006 8.66142,43.10205 -31.98291,82.67596 -75.27073,73.28838 z"
     id="path15" />
  <path
     style="opacity:0.86;fill:#9ebbbd;stroke:#3b7fa6;stroke-width:1.03854;stroke-opacity:0"
     d="m 305.03929,445.02122 c -21.86087,-6.13282 -40.0749,-24.25181 -45.53834,-45.30074 -2.74143,-10.5619 -2.30434,-25.62053 1.02084,-35.16966 6.74884,-19.38105 23.60119,-35.27635 43.49015,-41.02033 9.41684,-2.7196 24.34467,-2.31636 34.63339,0.93554 36.04845,11.39366 54.23641,52.86544 37.83753,86.27636 -7.01869,14.29983 -19.64781,25.85129 -34.80335,31.83353 -7.18656,2.83669 -9.85072,3.32702 -19.73225,3.63162 -7.89514,0.24338 -13.11792,-0.12307 -16.90797,-1.18632 z"
     id="path16" />
  <path
     style="opacity:0.86;fill:#9ebbbd;stroke:#3b7fa6;stroke-width:1.03854;stroke-opacity:0"
     d="m 302.21501,443.6426 c -37.69114,-14.03106 -54.54155,-52.90048 -37.6036,-86.74147 11.16679,-22.31058 35.82776,-36.67782 59.29167,-34.54275 18.40801,1.67502 32.36184,8.78554 43.52292,22.17817 10.4669,12.55965 14.7674,25.73133 13.98244,42.82572 -0.58824,12.81035 -2.83871,19.77643 -9.8084,30.36085 -6.38488,9.69633 -14.57787,16.68331 -26.28564,22.41643 l -9.86612,4.8313 -14.02029,0.3024 c -11.63704,0.251 -14.90296,-0.0262 -19.21298,-1.63065 z"
     id="path17" />
  <path
     style="opacity:0.86;fill:#9ebbbd;stroke:#3b7fa6;stroke-width:1.03854;stroke-opacity:0"
     d="m 302.02084,443.57793 c -10.2736,-3.80998 -16.46695,-7.9013 -25.29719,-16.71134 -6.36046,-6.3459 -9.80749,-10.78244 -12.16714,-15.65985 -8.53784,-17.64777 -8.62492,-36.06932 -0.25258,-53.42986 4.95853,-10.28181 12.28341,-18.58933 22.29408,-25.28488 11.25609,-7.52853 19.31604,-9.96961 32.7529,-9.9197 18.9138,0.0702 32.26803,5.71178 44.88693,18.96264 11.63633,12.21908 17.42545,26.15711 17.42545,41.95395 0,10.63003 -1.49153,17.64927 -5.57046,26.21496 -6.64159,13.94727 -16.67978,23.63787 -32.33624,31.21656 -8.22406,3.98096 -8.4505,4.02495 -22.3286,4.33849 -11.80478,0.26671 -14.87152,0.001 -19.40715,-1.68097 z"
     id="path18" />
  <path
     style="opacity:0.86;fill:#9ebbbd;stroke:#3b7fa6;stroke-width:1.03854;stroke-opacity:0"
     d="m 302.02084,443.51938 c -13.63793,-4.90939 -26.51884,-15.14631 -34.41706,-27.35247 -11.31657,-17.48899 -12.51701,-39.39305 -3.20366,-58.45623 5.09914,-10.43726 12.2583,-18.57068 22.19789,-25.21868 11.12713,-7.44228 19.2735,-9.90781 32.7529,-9.9128 18.46524,-0.007 32.7058,6.03477 45.03496,19.10623 23.25531,24.65541 23.1049,61.48629 -0.34739,85.0651 -7.53936,7.58003 -20.02915,15.23254 -28.40901,17.40625 -8.07284,2.09407 -27.01895,1.73475 -33.60863,-0.6374 z"
     id="path19" />
  <path
     style="opacity:0.86;fill:#9ebbbd;stroke:#3b7fa6;stroke-width:1.03854;stroke-opacity:0"
     d="m 303.19862,444.12498 c -8.18924,-2.65987 -17.67837,-8.54454 -25.06258,-15.54254 -13.23245,-12.54036 -18.82624,-24.21387 -19.74593,-41.20719 -1.00448,-18.55991 4.69445,-33.07824 18.35949,-46.77175 28.5307,-28.59015 73.04054,-23.44621 95.73284,11.06371 5.79794,8.81737 8.26306,16.84869 8.89176,28.96922 0.64564,12.44722 -0.6296,19.44908 -5.31663,29.19175 -6.66388,13.85182 -17.24827,24.0304 -32.62325,31.37244 -7.85351,3.75029 -8.21872,3.81755 -22.00633,4.05253 -9.37903,0.15984 -15.41365,-0.21362 -18.22937,-1.12817 z"
     id="path20" />
  <path
     style="opacity:0.86;fill:#9ebbbd;stroke:#3b7fa6;stroke-width:1.03854;stroke-opacity:0"
     d="M 19.732252,443.59035 C 14.538764,441.21811 7.215093,433.34676 4.5085708,427.22822 1.9499459,421.44402 1.7331301,409.71218 4.1002605,405.13465 6.9193994,399.68304 49.169582,356.69296 178.2698,227.91503 323.02489,83.521309 336.8756,69.964611 341.70924,67.94499 c 4.29875,-1.796132 13.41825,-1.912489 20.02154,-0.255458 3.68686,0.925179 6.27467,2.632272 10.62682,7.010142 6.60539,6.644443 9.30569,13.27178 9.30569,22.838978 0,7.475008 -2.77376,12.072328 -15.26736,25.304648 -17.30524,18.32848 -300.566224,301.46285 -310.366418,310.22769 -5.428687,4.85518 -11.610312,9.63319 -13.736944,10.6178 -5.317099,2.46178 -17.06754,2.41051 -22.560316,-0.0984 z"
     id="path21" />
  <path
     style="opacity:0.86;fill:#9ebbbd;stroke:#3b7fa6;stroke-width:1.03854;stroke-opacity:0"
     d="M 19.732252,443.59035 C 14.670671,441.27835 7.2953826,433.45457 4.6177057,427.55667 2.2081723,422.24939 1.9069749,409.00684 4.1053535,405.03043 7.0675221,399.67247 29.53787,376.82707 165.64706,240.79238 319.52434,86.999341 334.80348,71.927804 340.1217,68.688374 c 2.69213,-1.639824 5.3338,-2.215085 10.18515,-2.21796 11.03347,-0.0065 15.53568,1.681208 22.17689,8.313488 6.66162,6.652651 9.1833,12.910707 9.17423,22.767677 -0.007,7.198841 -2.08982,10.851091 -13.15525,23.063771 -11.4554,12.64308 -311.263789,312.16288 -317.769692,317.46381 -2.94146,2.39667 -7.015699,5.05435 -9.053865,5.90594 -5.211018,2.17731 -16.771186,1.96937 -21.946911,-0.39475 z"
     id="path22" />
  <path
     style="opacity:0.86;fill:#9ebbbd;stroke:#3b7fa6;stroke-width:1.03854;stroke-opacity:0"
     d="m 11.964034,390.98504 c 0.722533,-0.87059 1.527568,-1.36903 1.788967,-1.10763 0.720225,0.72022 -0.743119,2.69054 -1.998251,2.69054 -0.688649,0 -0.609863,-0.59589 0.209284,-1.58291 z"
     id="path23" />
  <path
     style="opacity:0.86;fill:#9ebbbd;stroke:#3b7fa6;stroke-width:1.03854;stroke-opacity:0"
     d=""
     id="path24" />
  <path
     style="opacity:0.86;fill:#9ebbbd;stroke:#3b7fa6;stroke-width:1.03854;stroke-opacity:0"
     d="M 19.732252,443.59035 C 14.670671,441.27835 7.2953826,433.45457 4.6177057,427.55667 1.7912669,421.3311 1.8417613,408.8772 4.712533,404.1685 8.1586818,398.51605 19.522929,386.9798 167.55222,238.8641 308.11437,98.219887 336.15986,70.606333 341.16024,67.929846 c 3.26502,-1.747621 15.52355,-1.86676 21.16957,-0.205745 6.04505,1.778408 15.3243,11.209447 17.59299,17.880782 2.29277,6.742101 2.1987,16.706737 -0.20019,21.207617 -1.01949,1.91279 -5.79017,7.82182 -10.60151,13.13116 -11.97326,13.21259 -314.043733,315.04291 -319.439239,319.18529 -2.377208,1.82509 -5.984105,4.01273 -8.015325,4.86144 -5.198331,2.17199 -16.765232,1.96104 -21.934284,-0.40004 z"
     id="path25" />
  <path
     style="opacity:0.86;fill:#9ebbbd;stroke:#3b7fa6;stroke-width:1.03854;stroke-opacity:0"
     d="M 19.732252,443.59035 C 14.524952,441.21179 7.2130218,433.34208 4.4892478,427.18454 1.9504378,421.44514 1.6598734,409.82889 3.9443787,405.40165 4.7865945,403.76948 10.085437,397.46185 15.719585,391.38468 36.441489,369.03338 333.53989,73.015763 338.48231,69.796092 c 4.51135,-2.938855 5.95961,-3.329561 12.34199,-3.329561 10.66045,0 14.87472,1.615384 21.56909,8.267712 6.77245,6.729919 9.29179,12.817637 9.22636,22.294575 -0.0558,8.083402 -1.63331,10.981712 -12.5351,23.030322 -11.80973,13.05205 -313.959534,314.88404 -319.402789,319.06683 -2.377208,1.82673 -5.984105,4.01571 -8.015325,4.86442 -5.198331,2.17199 -16.765232,1.96104 -21.934284,-0.40004 z"
     id="path26" />
  <path
     style="opacity:0.86;fill:#9ebbbd;stroke:#3b7fa6;stroke-width:1.03854;stroke-opacity:0"
     d="m 303.19862,444.12498 c -12.54105,-4.07333 -28.64873,-16.56579 -35.87017,-27.81942 -17.80242,-27.74267 -9.04146,-65.39985 19.55904,-84.07046 11.12167,-7.2603 19.23681,-9.73112 31.94415,-9.72605 11.94336,0.005 19.22635,1.55045 28.04057,5.95113 21.58503,10.77676 34.79108,31.96501 34.79108,55.82002 0,24.99315 -13.47086,44.96987 -38.42597,56.98409 -7.64205,3.67914 -8.05364,3.75442 -21.80933,3.98886 -9.37903,0.15984 -15.41365,-0.21362 -18.22937,-1.12817 z"
     id="path27" />
  <path
     style="opacity:0.86;fill:#9ebbbd;stroke:#3b7fa6;stroke-width:1.03854;stroke-opacity:0"
     d="M 19.732252,443.59035 C 14.519028,441.20909 7.2121315,433.34007 4.4809219,427.16571 1.8158757,421.14094 1.5817505,410.00492 4.0209617,405.288 4.9621647,403.46791 14.082002,393.20169 24.287268,382.47417 56.761725,348.33782 333.15763,73.285162 338.48231,69.806077 c 4.54066,-2.966812 5.93162,-3.338899 12.46247,-3.333754 4.04325,0.0032 9.18589,0.515135 11.4281,1.137666 5.79953,1.610194 15.28579,11.336971 17.54992,17.994894 2.37844,6.994025 2.26097,16.273047 -0.26878,21.231757 -1.1051,2.16617 -8.06356,10.44288 -15.46326,18.39271 -17.24358,18.52553 -308.76391,309.47594 -314.508899,313.89402 -2.377208,1.82817 -5.984105,4.01831 -8.015325,4.86702 -5.198331,2.17199 -16.765232,1.96104 -21.934284,-0.40004 z"
     id="path28" />
  <path
     style="opacity:0.86;fill:#9ebbbd;stroke:#3b7fa6;stroke-width:1.03854;stroke-opacity:0"
     d="M 20.251521,443.88018 C 15.924148,442.0087 10.782909,437.27192 6.696216,431.39126 1.8792747,424.4598 0.74322772,411.0737 4.412717,404.48467 5.0408151,403.35685 9.2120025,398.38749 13.682022,393.44165 29.446224,375.99942 333.43994,73.091452 338.48231,69.801418 c 4.53816,-2.96104 5.93522,-3.334237 12.46247,-3.329095 10.97222,0.0086 14.64353,1.407347 21.37118,8.142016 6.78885,6.795935 9.34733,12.8713 9.34733,22.196217 0,7.809574 -1.94547,11.567634 -11.44186,22.102224 -8.3697,9.2847 -97.99045,99.25646 -231.5764,232.48338 -98.632412,98.36732 -93.842566,94.17208 -107.43312,94.09666 -4.157772,-0.0231 -8.897316,-0.72042 -10.960389,-1.61264 z"
     id="path29" />
</svg>
