<?xml version="1.0" encoding="UTF-8" standalone="no"?>
<svg
   id="Layer_1"
   data-name="Layer 1"
   viewBox="0 0 24 24"
   width="512"
   height="512"
   version="1.1"
   xmlns="http://www.w3.org/2000/svg"
   xmlns:svg="http://www.w3.org/2000/svg">
  <defs
     id="defs1" />
  <path
     d="m 1.5,24 c -0.384,0 -0.768,-0.146 -1.061,-0.439 -0.586,-0.586 -0.586,-1.535 0,-2.121 l 21,-21.001 c 0.586,-0.586 1.535,-0.586 2.121,0 0.586,0.585 0.586,1.536 0,2.121 L 2.561,23.561 C 2.268,23.854 1.884,24 1.5,24 Z M 9,4.5 C 9,2.019 6.981,0 4.5,0 2.019,0 0,2.019 0,4.5 0,6.981 2.019,9 4.5,9 6.981,9 9,6.981 9,4.5 Z m -3,0 C 6,5.327 5.327,6 4.5,6 3.673,6 3,5.327 3,4.5 3,3.673 3.673,3 4.5,3 5.327,3 6,3.673 6,4.5 Z m 18,15 C 24,17.019 21.981,15 19.5,15 17.019,15 15,17.019 15,19.5 c 0,2.481 2.019,4.5 4.5,4.5 2.481,0 4.5,-2.019 4.5,-4.5 z m -3,0 C 21,20.327 20.327,21 19.5,21 18.673,21 18,20.327 18,19.5 18,18.673 18.673,18 19.5,18 c 0.827,0 1.5,0.673 1.5,1.5 z"
     id="path1" />
  <path
     style="fill:#ffc700;fill-opacity:1;stroke-width:0.0487805"
     d="M 1.2644121,23.946047 C 0.8024917,23.877518 0.37187056,23.540998 0.15901733,23.082208 0.0565422,22.86133 0.04139865,22.767457 0.05671712,22.448062 0.06915648,22.188696 0.10795764,22.005526 0.18263054,21.853658 0.26272045,21.690773 3.0561383,18.870212 11.011136,10.919932 21.22655,0.7105747 21.743778,0.20183365 21.987876,0.12330488 c 0.76508,-0.2461344 1.527083,0.0788864 1.852764,0.79026857 C 23.999146,1.2597964 23.985956,1.8058044 23.810728,2.1517514 23.645967,2.477034 2.3991339,23.718703 2.1253495,23.831859 1.8601656,23.941461 1.5292955,23.985345 1.2644121,23.946047 Z"
     id="path2" />
  <path
     style="fill:#ffc700;fill-opacity:1;stroke-width:0.0487805"
     d="m 19.097561,23.948325 c -1.856586,-0.160727 -3.459031,-1.527397 -3.931777,-3.353278 -0.126685,-0.489295 -0.169476,-1.250449 -0.0965,-1.716575 0.08298,-0.53002 0.315781,-1.187131 0.579105,-1.63457 0.310607,-0.527781 1.067736,-1.28491 1.595517,-1.595517 0.747363,-0.439834 1.637161,-0.657319 2.487805,-0.608073 2.009387,0.11633 3.655913,1.50561 4.127805,3.482892 0.08704,0.364683 0.09876,0.532676 0.07922,1.135332 -0.02502,0.771865 -0.131386,1.21608 -0.438023,1.829269 -0.302927,0.605772 -0.94337,1.338173 -1.500712,1.716193 -0.548748,0.372191 -1.356813,0.674091 -1.936386,0.72345 -0.182549,0.01555 -0.386785,0.03421 -0.453858,0.04146 -0.06707,0.0073 -0.297561,-0.002 -0.512195,-0.02059 z m 1.025176,-3.06528 C 21.276376,20.374243 21.3175,18.714901 20.19043,18.151697 19.935549,18.024332 19.830817,18 19.537484,18 19.036296,18 18.762744,18.108075 18.43541,18.43541 18.108075,18.762744 18,19.036296 18,19.537484 c 0,0.292499 0.02442,0.398246 0.150025,0.649599 0.36174,0.723905 1.221567,1.027247 1.972712,0.695962 z"
     id="path3" />
  <path
     style="fill:#ffc700;fill-opacity:1;stroke-width:0.0487805"
     d="M 3.6943331,8.8983642 C 2.2560967,8.638343 0.9652042,7.6028208 0.38780224,6.2459466 0.11555315,5.6061703 0.03542068,5.1388092 0.06126472,4.3414634 0.08068219,3.7423912 0.10475377,3.5706924 0.21855848,3.2195122 0.68415703,1.7827612 1.7392143,0.70416478 3.1219512,0.25134244 3.6097761,0.09158826 3.9273396,0.04458979 4.5216555,0.04419026 6.2663419,0.04301739 7.8233367,1.051947 8.5696758,2.6672997 9.1788253,3.9857248 9.0777834,5.5861931 8.3072869,6.8234278 7.3301456,8.392485 5.4855417,9.2222002 3.6943331,8.8983642 Z M 5.0522859,5.9182486 C 5.3792241,5.8070681 5.8070681,5.3792241 5.9182486,5.0522859 5.9647439,4.9155633 6,4.6612174 6,4.4625163 6,3.8662907 5.6710233,3.3554258 5.1244298,3.1028503 4.8005977,2.9532108 4.1589634,2.9604407 3.8536585,3.1171693 2.713532,3.7024544 2.6879395,5.2878169 3.80957,5.8483027 4.0644509,5.9756677 4.1691825,6 4.4625163,6 4.6612174,6 4.9155633,5.9647439 5.0522859,5.9182486 Z"
     id="path4" />
</svg>
