<?xml version="1.0" encoding="UTF-8" standalone="no"?>
<svg
   height="24"
   viewBox="0 -960 960 960"
   width="24"
   version="1.1"
   id="svg1"
   xmlns="http://www.w3.org/2000/svg"
   xmlns:svg="http://www.w3.org/2000/svg">
  <defs
     id="defs1" />
  <path
     d="M 441,-82 Q 287,-97 184,-211 81,-325 81,-480 81,-635 184,-749 287,-863 441,-878 v 120 q -104,14 -172,93 -68,79 -68,185 0,106 68,185 68,79 172,93 z m 80,0 v -120 q 94,-12 159,-78 65,-66 79,-160 H 879 Q 865,-297 764.5,-196.5 664,-96 521,-82 Z m 238,-438 q -14,-94 -79,-160 -65,-66 -159,-78 v -120 q 143,14 243.5,114.5 Q 865,-663 879,-520 Z"
     id="path1" />
  <path
     style="opacity:0.86;fill:#ffff00;stroke:#3b7fa6;stroke-width:1.94726;stroke-opacity:0"
     d="m 408.92496,-87.51156 c -82.07045,-14.58556 -151.21667,-50.7804 -209.85822,-109.85108 -64.91502,-65.39008 -103.207132,-143.44684 -114.268444,-232.93112 -2.62688,-21.25092 -2.62688,-78.16156 0,-99.41248 11.001724,-89.00225 48.506684,-166.07772 112.497244,-231.19018 50.8327,-51.7239 108.66853,-85.71804 176.41992,-103.69422 19.83296,-5.2622 53.78182,-11.65052 62.0129,-11.66928 3.2192,-0.007 3.4036,3.7066 2.9208,58.78286 l -0.5152,58.7907 -12.92464,2.38472 c -70.10575,12.9353 -128.48718,50.20804 -172.5263,110.14675 -66.61386,90.66369 -70.43668,224.23345 -9.11814,318.58885 43.1046,66.3282 103.05054,107.91256 177.19704,122.92108 l 17.37196,3.5164 0.5152,58.69816 0.5152,58.69816 -5.38352,-0.16 c -2.9608,-0.088 -14.1462,-1.7168 -24.85612,-3.62 z"
     id="path2" />
  <path
     style="opacity:0.86;fill:#ffff00;stroke:#3b7fa6;stroke-width:1.94726;stroke-opacity:0"
     d="m 523.298,-142.41048 0.5156,-58.6782 21.41988,-4.39328 c 54.06776,-11.0894 99.30064,-36.39312 138.66828,-77.57244 36.7542,-38.44552 61.8302,-85.97272 72.43448,-137.2868 l 3.4756,-16.81904 58.7148,-0.5152 c 55.00372,-0.4828 58.71428,-0.3 58.70696,2.9208 -0.019,8.31952 -6.43424,42.282 -11.82168,62.584 -35.16552,132.51728 -144.15812,241.4628 -276.77212,276.65248 -20.16792,5.35164 -54.1264,11.75924 -62.42084,11.77816 -3.2192,0.0074 -3.4036,-3.7016 -2.9208,-58.6704 z"
     id="path3" />
  <path
     style="opacity:0.86;fill:#88a1a3;fill-opacity:1;stroke:#3b7fa6;stroke-width:1.94726;stroke-opacity:0"
     d="m 759.554,-524.3002 c -0.4012,-1.3388 -1.8208,-8.12984 -3.1548,-15.09128 -14.9848,-78.19814 -71.30484,-153.85333 -141.75228,-190.41694 -24.41544,-12.67209 -43.029,-19.29808 -69.41364,-24.70963 l -21.41988,-4.39327 -0.5156,-58.67821 -0.5152,-58.67822 4.40992,0.006 c 17.78332,0.0251 74.3566,13.96638 103.52592,25.51176 98.97548,39.17511 182.59792,123.23993 221.82808,223.00164 10.9758,27.91121 24.64604,84.65569 24.687,102.47429 0.007,3.17 -4.07208,3.4076 -58.47112,3.4076 -45.09596,0 -58.64592,-0.5572 -59.20844,-2.434 z"
     id="path4" />
  <path
     style="opacity:0.86;fill:#88a1a3;fill-opacity:1;stroke:#3b7fa6;stroke-width:1.94726;stroke-opacity:0"
     d="M 425.47668,-85.9882 C 400.3446,-88.941 361.93145,-98.77152 334.99471,-109.14392 222.83307,-152.33352 128.97452,-256.22776 97.595252,-371.92696 87.275784,-409.97612 86.143416,-419.1118 85.209408,-471.85312 c -0.98392,-55.55976 0.557596,-70.86372 11.232068,-111.51053 35.309254,-134.45242 145.611434,-245.71989 277.432764,-279.86069 22.9313,-5.93904 49.72936,-11.09615 57.65932,-11.09615 h 5.62668 v 57.30617 57.30616 l -11.19676,2.21432 c -81.91229,16.19915 -148.69969,63.76311 -190.04426,135.34374 -42.8879,74.25262 -48.43266,175.45782 -14.018,255.86258 17.34243,40.51796 50.30108,83.30632 85.76612,111.34528 31.57064,24.96 73.41917,43.51536 118.18866,52.40408 l 11.08928,2.2016 0.5944,57.81532 c 0.328,31.7984 0.5944,57.86136 0.5944,57.91768 0,0.056 -5.69576,-0.5668 -12.6572,-1.3848 z"
     id="path5" />
  <path
     style="opacity:0.86;fill:#9ebbbd;fill-opacity:1;stroke:#3b7fa6;stroke-width:1.94726;stroke-opacity:0"
     d="m 524.787,-142.85484 c 0,-31.7422 0.4536,-57.71312 1.0076,-57.71312 5.1388,0 42.19656,-9.40116 55.35264,-14.04236 88.37948,-31.17864 154.79708,-108.95948 176.31904,-206.485 l 3.3304,-15.09128 h 57.24876 57.24876 v 6.08392 c 0,10.43644 -9.51436,53.66024 -16.81204,76.37748 -32.01328,99.65492 -107.58752,185.58728 -204.20216,232.18996 -36.48216,17.5974 -83.22436,31.59388 -117.32252,35.13104 l -12.1704,1.2624 z"
     id="path6" />
  <path
     style="opacity:0.86;fill:#9ebbbd;fill-opacity:1;stroke:#3b7fa6;stroke-width:1.94726;stroke-opacity:0"
     d="m 524.787,-101.95452 c 0,-8.91028 0.5712,-34.54088 1.2692,-56.95688 l 1.2692,-40.75636 19.4858,-4.55156 c 37.8696,-8.84576 64.34344,-19.82968 91.75592,-38.06932 58.42496,-38.87464 99.41276,-98.45988 117.97532,-171.50448 l 5.44336,-21.41988 56.62084,-0.516 56.62084,-0.516 -1.1344,9.27884 c -1.7508,14.32048 -10.33592,52.33372 -15.72848,69.64396 -31.24396,100.29408 -107.45008,187.32796 -205.47324,234.668 -36.62916,17.68996 -81.44712,31.17656 -118.85492,35.76576 l -9.24952,1.1348 z"
     id="path7" />
  <path
     style="opacity:0.86;fill:#9ebbbd;fill-opacity:1;stroke:#3b7fa6;stroke-width:1.94726;stroke-opacity:0"
     d="m 412.81948,-88.8188 c -81.59512,-14.6124 -146.63837,-48.01808 -206.11818,-105.86052 -56.27442,-54.72528 -91.68634,-114.43496 -110.180136,-185.7798 -8.830236,-34.065 -10.350276,-52.233 -9.40726,-112.43856 l 0.835,-53.3092 7.269248,-27.91709 c 8.581178,-32.95544 16.895948,-55.45098 30.552788,-82.66032 44.26032,-88.18252 122.00307,-159.51374 210.1317,-192.8019 28.57814,-10.79461 63.34194,-19.63897 93.0112,-23.66323 l 8.30532,-1.12652 -0.5164,56.85928 -0.5164,56.85928 -16.35148,3.5816 c -24.94484,5.46392 -43.67929,12.19934 -69.32778,24.92486 -59.18012,29.36229 -107.50286,82.11144 -131.53909,143.5882 -30.7414,78.6264 -25.54164,175.66228 13.12115,244.86172 28.73012,51.42176 69.72939,91.83392 117.6153,115.93112 20.60203,10.36736 52.20414,21.46312 72.11158,25.319 l 12.89112,2.4968 1.2128,12.83704 c 0.6672,7.06036 1.2188,32.77212 1.2264,57.13724 l 0.0138,44.3002 -4.38132,-0.176 c -2.4096,-0.096 -11.39148,-1.43 -19.95944,-2.9644 z"
     id="path8" />
  <path
     style="opacity:0.86;fill:#9ebbbd;fill-opacity:1;stroke:#3b7fa6;stroke-width:1.94726;stroke-opacity:0"
     d="m 783.46808,-523.31872 -22.69828,-0.6152 -3.228,-15.03104 c -13.16936,-61.32193 -47.11892,-118.83158 -93.15268,-157.79813 -36.02832,-30.49711 -70.60084,-47.74442 -116.2,-57.96902 -12.33564,-2.766 -22.57624,-5.17583 -22.75688,-5.35517 -0.18,-0.1792 -0.6188,-26.26158 -0.9736,-57.96052 l -0.6452,-57.63443 8.76268,0.86356 c 15.47512,1.52504 52.86584,10.35338 77.1708,18.22079 97.8344,31.66862 183.41728,107.43884 229.61896,203.2916 6.71092,13.92292 14.11328,31.01014 16.44964,37.9716 7.32708,21.832 17.46092,63.79404 18.74636,77.62476 l 1.2332,13.26872 -26.84636,1.2876 c -14.76556,0.708 -30.432,1.0992 -34.81436,0.8688 -4.3824,-0.232 -18.1822,-0.6956 -30.66624,-1.034 z"
     id="path9" />
  <path
     style="opacity:0.86;fill:#9ebbbd;fill-opacity:1;stroke:#3b7fa6;stroke-width:1.94726;stroke-opacity:0"
     d="m 525.81904,-135.16588 c 0.602,-26.86768 1.5188,-52.3554 2.0368,-56.6394 l 0.9424,-7.78904 22.82188,-5.40868 c 51.0694,-12.10316 93.15892,-35.39712 128.99904,-71.39304 39.20384,-39.3742 63.08772,-84.10944 79.68644,-149.25512 l 2.0292,-7.96348 55.79868,-1.318 c 30.68924,-0.7248 55.97496,-1.0844 56.19044,-0.7992 0.8804,1.1656 -5.31788,33.23436 -10.82704,56.01564 -10.05672,41.58596 -29.267,84.444 -54.83176,122.32936 -60.43268,89.55736 -165.40672,154.8606 -272.47348,169.50292 l -11.46724,1.5684 z"
     id="path10" />
  <path
     style="opacity:0.86;fill:#9ebbbd;fill-opacity:1;stroke:#3b7fa6;stroke-width:1.94726;stroke-opacity:0"
     d="m 428.39756,-87.06512 c -65.10268,-8.93876 -127.82732,-34.26148 -178.76239,-72.1686 -66.59759,-49.5636 -119.34253,-120.4686 -143.61264,-193.0584 -15.493522,-46.33976 -15.946366,-49.6996 -16.887762,-125.29568 l -0.842932,-67.68924 8.106348,-29.67385 c 13.547676,-49.5922 28.698196,-83.90161 53.947896,-122.16879 62.30696,-94.42926 158.13557,-156.24944 269.61688,-173.93305 l 16.8798,-2.67756 -1.0768,55.68866 c -0.5924,30.62877 -1.2824,55.93892 -1.5332,56.24479 -0.252,0.306 -10.42944,3.09304 -22.61848,6.19372 -80.06804,20.36788 -144.61221,71.00023 -181.78212,142.60086 -30.09504,57.97226 -39.15359,131.14442 -24.52457,198.1017 11.67083,53.41756 35.7589,96.47176 76.90805,137.46276 24.59204,24.49756 42.00126,37.38068 68.61206,50.77412 17.72126,8.91928 59.02734,23.15716 73.0575,25.1824 5.01516,0.724 9.54636,2.4312 10.06936,3.7944 1.8396,4.79448 3.7884,112.00956 2.0304,111.71576 -0.96,-0.16 -4.37452,-0.6528 -7.58752,-1.094 z"
     id="path11" />
  <path
     style="opacity:0.86;fill:#9ebbbd;fill-opacity:1;stroke:#3b7fa6;stroke-width:1.94726;stroke-opacity:0"
     d="m 414.76672,-89.4588 c -85.94341,-15.27388 -157.78188,-53.90608 -218.31729,-117.40336 -44.0393,-46.194 -73.8231,-94.9008 -92.00528,-150.46036 -13.768938,-42.07392 -14.472034,-48.08844 -14.68245,-125.59836 l -0.187664,-69.1278 7.534696,-26.28803 c 12.354548,-43.10418 26.138598,-75.24044 46.026038,-107.3056 53.29215,-85.92464 132.45722,-146.66663 226.77147,-173.99783 20.14497,-5.83778 53.6494,-12.73308 61.87028,-12.73308 h 5.879 l -1.1612,17.03854 c -0.6388,9.37119 -1.188,34.21053 -1.2212,55.19853 l -0.06,38.15999 -20.93308,5.53682 c -68.46054,18.10788 -121.94156,53.38822 -161.98059,106.85522 -61.69759,82.38925 -71.46593,208.39672 -23.31663,300.77504 27.83242,53.39876 79.46666,104.03496 127.45141,124.98784 18.16367,7.93132 50.67901,18.99788 62.85977,21.39432 7.27296,1.4308 12.85048,3.6592 13.85364,5.53476 2.2984,4.29712 5.01508,111.25552 2.8208,111.05332 -0.9508,-0.088 -10.49168,-1.7168 -21.20164,-3.62 z"
     id="path12" />
</svg>
