<?xml version="1.0" encoding="UTF-8" standalone="no"?>
<svg
   height="24"
   viewBox="0 -960 960 960"
   width="24"
   version="1.1"
   id="svg1"
   xmlns="http://www.w3.org/2000/svg"
   xmlns:svg="http://www.w3.org/2000/svg">
  <defs
     id="defs1" />
  <path
     d="M 441,-82 Q 287,-97 184,-211 81,-325 81,-480 81,-635 184,-749 287,-863 441,-878 v 120 q -104,14 -172,93 -68,79 -68,185 0,106 68,185 68,79 172,93 z m 80,0 v -120 q 94,-12 159,-78 65,-66 79,-160 H 879 Q 865,-297 764.5,-196.5 664,-96 521,-82 Z m 238,-438 q -14,-94 -79,-160 -65,-66 -159,-78 v -120 q 143,14 243.5,114.5 Q 865,-663 879,-520 Z"
     id="path1" />
  <path
     style="opacity:0.86;fill:#00294d;fill-opacity:1;stroke:#3b7fa6;stroke-opacity:0"
     d="m 408.92496,-87.51156 c -82.07045,-14.58556 -151.21667,-50.7804 -209.85822,-109.85108 -64.91502,-65.39008 -103.207132,-143.44684 -114.268444,-232.93112 -2.62688,-21.25092 -2.62688,-78.16156 0,-99.41248 11.001724,-89.00225 48.506684,-166.07772 112.497244,-231.19018 50.8327,-51.7239 108.66853,-85.71804 176.41992,-103.69422 19.83296,-5.2622 53.78182,-11.65052 62.0129,-11.66928 3.2192,-0.007 3.4036,3.7066 2.9208,58.78286 l -0.5152,58.7907 -12.92464,2.38472 c -70.10575,12.9353 -128.48718,50.20804 -172.5263,110.14675 -66.61386,90.66369 -70.43668,224.23345 -9.11814,318.58885 43.1046,66.3282 103.05054,107.91256 177.19704,122.92108 l 17.37196,3.5164 0.5152,58.69816 0.5152,58.69816 -5.38352,-0.16 c -2.9608,-0.088 -14.1462,-1.7168 -24.85612,-3.62 z"
     id="path2" />
  <path
     style="opacity:0.86;fill:#00294d;fill-opacity:1;stroke:#3b7fa6;stroke-width:1.94726;stroke-opacity:0"
     d="m 523.298,-142.41048 0.5156,-58.6782 21.41988,-4.39328 c 54.06776,-11.0894 99.30064,-36.39312 138.66828,-77.57244 36.7542,-38.44552 61.8302,-85.97272 72.43448,-137.2868 l 3.4756,-16.81904 58.7148,-0.5152 c 55.00372,-0.4828 58.71428,-0.3 58.70696,2.9208 -0.019,8.31952 -6.43424,42.282 -11.82168,62.584 -35.16552,132.51728 -144.15812,241.4628 -276.77212,276.65248 -20.16792,5.35164 -54.1264,11.75924 -62.42084,11.77816 -3.2192,0.0074 -3.4036,-3.7016 -2.9208,-58.6704 z"
     id="path3" />
  <path
     style="opacity:0.86;fill:#00294d;fill-opacity:1;stroke:#3b7fa6;stroke-width:1.94726;stroke-opacity:0"
     d="m 759.554,-524.3002 c -0.4012,-1.3388 -1.8208,-8.12984 -3.1548,-15.09128 -14.9848,-78.19814 -71.30484,-153.85333 -141.75228,-190.41694 -24.41544,-12.67209 -43.029,-19.29808 -69.41364,-24.70963 l -21.41988,-4.39327 -0.5156,-58.67821 -0.5152,-58.67822 4.40992,0.006 c 17.78332,0.0251 74.3566,13.96638 103.52592,25.51176 98.97548,39.17511 182.59792,123.23993 221.82808,223.00164 10.9758,27.91121 24.64604,84.65569 24.687,102.47429 0.007,3.17 -4.07208,3.4076 -58.47112,3.4076 -45.09596,0 -58.64592,-0.5572 -59.20844,-2.434 z"
     id="path4" />
  <path
     style="opacity:0.86;fill:#00294d;fill-opacity:1;stroke:#3b7fa6;stroke-opacity:0"
     d="M 425.47668,-85.9882 C 400.3446,-88.941 361.93145,-98.77152 334.99471,-109.14392 222.83307,-152.33352 128.97452,-256.22776 97.595252,-371.92696 87.275784,-409.97612 86.143416,-419.1118 85.209408,-471.85312 c -0.98392,-55.55976 0.557596,-70.86372 11.232068,-111.51053 35.309254,-134.45242 145.611434,-245.71989 277.432764,-279.86069 22.9313,-5.93904 49.72936,-11.09615 57.65932,-11.09615 h 5.62668 v 57.30617 57.30616 l -11.19676,2.21432 c -81.91229,16.19915 -148.69969,63.76311 -190.04426,135.34374 -42.8879,74.25262 -48.43266,175.45782 -14.018,255.86258 17.34243,40.51796 50.30108,83.30632 85.76612,111.34528 31.57064,24.96 73.41917,43.51536 118.18866,52.40408 l 11.08928,2.2016 0.5944,57.81532 c 0.328,31.7984 0.5944,57.86136 0.5944,57.91768 0,0.056 -5.69576,-0.5668 -12.6572,-1.3848 z"
     id="path5" />
  <path
     style="opacity:0.86;fill:#00294d;fill-opacity:1;stroke:#3b7fa6;stroke-opacity:0"
     d="m 524.787,-142.85484 c 0,-31.7422 0.4536,-57.71312 1.0076,-57.71312 5.1388,0 42.19656,-9.40116 55.35264,-14.04236 88.37948,-31.17864 154.79708,-108.95948 176.31904,-206.485 l 3.3304,-15.09128 h 57.24876 57.24876 v 6.08392 c 0,10.43644 -9.51436,53.66024 -16.81204,76.37748 -32.01328,99.65492 -107.58752,185.58728 -204.20216,232.18996 -36.48216,17.5974 -83.22436,31.59388 -117.32252,35.13104 l -12.1704,1.2624 z"
     id="path6" />
  <path
     style="opacity:0.86;fill:#00294d;fill-opacity:1;stroke:#3b7fa6;stroke-width:1.94726;stroke-opacity:0"
     d="m 524.787,-101.95452 c 0,-8.91028 0.5712,-34.54088 1.2692,-56.95688 l 1.2692,-40.75636 19.4858,-4.55156 c 37.8696,-8.84576 64.34344,-19.82968 91.75592,-38.06932 58.42496,-38.87464 99.41276,-98.45988 117.97532,-171.50448 l 5.44336,-21.41988 56.62084,-0.516 56.62084,-0.516 -1.1344,9.27884 c -1.7508,14.32048 -10.33592,52.33372 -15.72848,69.64396 -31.24396,100.29408 -107.45008,187.32796 -205.47324,234.668 -36.62916,17.68996 -81.44712,31.17656 -118.85492,35.76576 l -9.24952,1.1348 z"
     id="path7" />
  <path
     style="opacity:0.86;fill:#00294d;fill-opacity:1;stroke:#3b7fa6;stroke-opacity:0"
     d="m 412.81948,-88.8188 c -81.59512,-14.6124 -146.63837,-48.01808 -206.11818,-105.86052 -56.27442,-54.72528 -91.68634,-114.43496 -110.180136,-185.7798 -8.830236,-34.065 -10.350276,-52.233 -9.40726,-112.43856 l 0.835,-53.3092 7.269248,-27.91709 c 8.581178,-32.95544 16.895948,-55.45098 30.552788,-82.66032 44.26032,-88.18252 122.00307,-159.51374 210.1317,-192.8019 28.57814,-10.79461 63.34194,-19.63897 93.0112,-23.66323 l 8.30532,-1.12652 -0.5164,56.85928 -0.5164,56.85928 -16.35148,3.5816 c -24.94484,5.46392 -43.67929,12.19934 -69.32778,24.92486 -59.18012,29.36229 -107.50286,82.11144 -131.53909,143.5882 -30.7414,78.6264 -25.54164,175.66228 13.12115,244.86172 28.73012,51.42176 69.72939,91.83392 117.6153,115.93112 20.60203,10.36736 52.20414,21.46312 72.11158,25.319 l 12.89112,2.4968 1.2128,12.83704 c 0.6672,7.06036 1.2188,32.77212 1.2264,57.13724 l 0.0138,44.3002 -4.38132,-0.176 c -2.4096,-0.096 -11.39148,-1.43 -19.95944,-2.9644 z"
     id="path8" />
  <path
     style="opacity:0.86;fill:#00294d;fill-opacity:1;stroke:#3b7fa6;stroke-width:1.94726;stroke-opacity:0"
     d="m 783.46808,-523.31872 -22.69828,-0.6152 -3.228,-15.03104 c -13.16936,-61.32193 -47.11892,-118.83158 -93.15268,-157.79813 -36.02832,-30.49711 -70.60084,-47.74442 -116.2,-57.96902 -12.33564,-2.766 -22.57624,-5.17583 -22.75688,-5.35517 -0.18,-0.1792 -0.6188,-26.26158 -0.9736,-57.96052 l -0.6452,-57.63443 8.76268,0.86356 c 15.47512,1.52504 52.86584,10.35338 77.1708,18.22079 97.8344,31.66862 183.41728,107.43884 229.61896,203.2916 6.71092,13.92292 14.11328,31.01014 16.44964,37.9716 7.32708,21.832 17.46092,63.79404 18.74636,77.62476 l 1.2332,13.26872 -26.84636,1.2876 c -14.76556,0.708 -30.432,1.0992 -34.81436,0.8688 -4.3824,-0.232 -18.1822,-0.6956 -30.66624,-1.034 z"
     id="path9" />
  <path
     style="opacity:0.86;fill:#00294d;fill-opacity:1;stroke:#3b7fa6;stroke-width:1.94726;stroke-opacity:0"
     d="m 525.81904,-135.16588 c 0.602,-26.86768 1.5188,-52.3554 2.0368,-56.6394 l 0.9424,-7.78904 22.82188,-5.40868 c 51.0694,-12.10316 93.15892,-35.39712 128.99904,-71.39304 39.20384,-39.3742 63.08772,-84.10944 79.68644,-149.25512 l 2.0292,-7.96348 55.79868,-1.318 c 30.68924,-0.7248 55.97496,-1.0844 56.19044,-0.7992 0.8804,1.1656 -5.31788,33.23436 -10.82704,56.01564 -10.05672,41.58596 -29.267,84.444 -54.83176,122.32936 -60.43268,89.55736 -165.40672,154.8606 -272.47348,169.50292 l -11.46724,1.5684 z"
     id="path10" />
  <path
     style="opacity:0.86;fill:#00294d;fill-opacity:1;stroke:#3b7fa6;stroke-opacity:0"
     d="m 428.39756,-87.06512 c -65.10268,-8.93876 -127.82732,-34.26148 -178.76239,-72.1686 -66.59759,-49.5636 -119.34253,-120.4686 -143.61264,-193.0584 -15.493522,-46.33976 -15.946366,-49.6996 -16.887762,-125.29568 l -0.842932,-67.68924 8.106348,-29.67385 c 13.547676,-49.5922 28.698196,-83.90161 53.947896,-122.16879 62.30696,-94.42926 158.13557,-156.24944 269.61688,-173.93305 l 16.8798,-2.67756 -1.0768,55.68866 c -0.5924,30.62877 -1.2824,55.93892 -1.5332,56.24479 -0.252,0.306 -10.42944,3.09304 -22.61848,6.19372 -80.06804,20.36788 -144.61221,71.00023 -181.78212,142.60086 -30.09504,57.97226 -39.15359,131.14442 -24.52457,198.1017 11.67083,53.41756 35.7589,96.47176 76.90805,137.46276 24.59204,24.49756 42.00126,37.38068 68.61206,50.77412 17.72126,8.91928 59.02734,23.15716 73.0575,25.1824 5.01516,0.724 9.54636,2.4312 10.06936,3.7944 1.8396,4.79448 3.7884,112.00956 2.0304,111.71576 -0.96,-0.16 -4.37452,-0.6528 -7.58752,-1.094 z"
     id="path11" />
  <path
     style="opacity:0.86;fill:#00294d;fill-opacity:1;stroke:#3b7fa6;stroke-opacity:0"
     d="m 414.76672,-89.4588 c -85.94341,-15.27388 -157.78188,-53.90608 -218.31729,-117.40336 -44.0393,-46.194 -73.8231,-94.9008 -92.00528,-150.46036 -13.768938,-42.07392 -14.472034,-48.08844 -14.68245,-125.59836 l -0.187664,-69.1278 7.534696,-26.28803 c 12.354548,-43.10418 26.138598,-75.24044 46.026038,-107.3056 53.29215,-85.92464 132.45722,-146.66663 226.77147,-173.99783 20.14497,-5.83778 53.6494,-12.73308 61.87028,-12.73308 h 5.879 l -1.1612,17.03854 c -0.6388,9.37119 -1.188,34.21053 -1.2212,55.19853 l -0.06,38.15999 -20.93308,5.53682 c -68.46054,18.10788 -121.94156,53.38822 -161.98059,106.85522 -61.69759,82.38925 -71.46593,208.39672 -23.31663,300.77504 27.83242,53.39876 79.46666,104.03496 127.45141,124.98784 18.16367,7.93132 50.67901,18.99788 62.85977,21.39432 7.27296,1.4308 12.85048,3.6592 13.85364,5.53476 2.2984,4.29712 5.01508,111.25552 2.8208,111.05332 -0.9508,-0.088 -10.49168,-1.7168 -21.20164,-3.62 z"
     id="path12" />
  <path
     style="opacity:0.86;fill:#00294d;fill-opacity:1;stroke:#3b7fa6;stroke-width:40;stroke-opacity:0"
     d="M 404.74852,-92.47512 C 321.12039,-110.20516 254.46708,-147.54256 195.99518,-209.41304 152.84712,-255.069 125.06789,-300.39668 106.20573,-355.9234 92.527768,-396.18884 92.269308,-398.293 91.128532,-478.67092 c -1.136272,-80.06036 -2.18874,-70.05824 12.190348,-115.85087 26.8548,-85.52363 79.90443,-158.44624 151.7724,-208.62801 51.75194,-36.13578 104.79449,-56.85102 174.76672,-68.25344 4.48356,-0.73064 5.3674,-0.1676 5.43116,3.46004 0.04,2.38296 -0.144,21.41988 -0.4104,42.30426 -0.268,20.88438 -0.5208,43.88641 -0.5632,51.11562 -0.064,11.0179 -0.6096,13.14402 -3.3712,13.14402 -5.75896,0 -48.67344,13.66948 -65.23395,20.77886 -57.00117,24.4705 -108.04552,71.39296 -135.39137,124.45841 -44.5463,86.44343 -42.93196,198.44415 4.01787,278.75291 23.68231,40.50912 63.59191,81.25348 102.41443,104.55648 14.4556,8.67688 43.95823,20.27508 73.1469,28.75584 l 22.39348,6.5064 1.2672,16.5134 c 0.6968,9.08236 1.354,33.81968 1.4604,54.9718 l 0.192,38.45844 -4.38136,-0.124 c -2.4096,-0.068 -14.14716,-2.194 -26.08312,-4.72468 z"
     id="path13" />
  <path
     style="opacity:0.86;fill:#00294d;fill-opacity:1;stroke:#3b7fa6;stroke-width:1.94726;stroke-opacity:0"
     d="m 761.74716,-525.27384 c -0.4596,-0.80324 -2.3692,-8.4706 -4.24356,-17.03852 -7.31168,-33.42276 -22.28216,-67.26844 -42.23088,-97.27935 -17.10324,-25.73011 -37.8658,-48.64141 -60.59832,-66.05066 -32.58372,-24.95357 -59.23468,-37.63243 -102.62572,-48.82295 l -24.34076,-6.27747 -1.11244,-16.38317 c -0.612,-9.01074 -1.3008,-34.67066 -1.5308,-57.02203 l -0.4184,-40.63886 11.26728,1.38844 c 17.2864,2.13012 67.41564,15.25888 89.15776,23.35024 73.87996,27.49452 143.35052,84.08605 189.11576,154.05588 11.18928,17.10716 30.34624,54.52206 38.43392,75.06419 5.78364,14.69006 19.62688,69.70818 21.3106,84.69626 l 1.1204,9.97504 -8.91328,1.2216 c -12.62612,1.7304 -103.38336,1.5232 -104.3914,-0.24 z"
     id="path14" />
  <path
     style="opacity:0.86;fill:#00294d;fill-opacity:1;stroke:#3b7fa6;stroke-width:40;stroke-opacity:0"
     d="m 525.6848,-133.2146 c 1.508,-60.05244 2.234,-67.35336 6.69944,-67.35336 1.8824,0 14.7392,-3.1016 28.57072,-6.89236 75.59236,-20.71756 135.72964,-70.4692 172.19612,-142.45808 8.58896,-16.95552 21.40608,-52.6938 27.2728,-76.04508 l 2.0792,-8.27588 h 22.98108 c 12.6396,0 37.57948,-0.5756 55.42192,-1.2796 l 32.4408,-1.2796 v 5.9332 c 0,14.7304 -14.00068,71.36292 -23.67788,95.77648 -47.52336,119.89188 -151.14624,209.3864 -278.30412,240.35912 -11.1594,2.718 -26.2676,5.72508 -33.57384,6.68204 l -13.28408,1.74 z"
     id="path15" />
  <path
     style="opacity:0.86;fill:#00294d;fill-opacity:1;stroke:#3b7fa6;stroke-width:1.94726;stroke-opacity:0"
     d="m 439.96868,-144.09736 c 0,-31.59432 0.268,-44.51928 0.5952,-28.72212 0.328,15.79716 0.328,41.64708 0,57.44424 -0.328,15.79716 -0.5952,2.8724 -0.5952,-28.72212 z"
     id="path16" />
  <path
     style="opacity:0.86;fill:#00294d;fill-opacity:1;stroke:#3b7fa6;stroke-width:1.94726;stroke-opacity:0"
     d="m 437.31396,-137.4442 c 0.092,-2.2684 0.5548,-2.73 1.1764,-1.1764 0.5624,1.4056 0.4932,3.0852 -0.152,3.7324 -0.6472,0.6472 -1.1072,-0.5032 -1.0228,-2.5556 z"
     id="path17" />
  <path
     style="opacity:0.86;fill:#00294d;fill-opacity:1;stroke:#3b7fa6;stroke-width:0.15625;stroke-opacity:0"
     d="m 524.84076,-128.59376 c 0,-8.55076 0.0189,-12.0488 0.04,-7.77344 0.0231,4.2754 0.0231,11.27148 0,15.54688 -0.0231,4.2754 -0.04,0.7772 -0.04,-7.77344 z"
     id="path18" />
  <path
     style="opacity:0.86;fill:#00294d;fill-opacity:1;stroke:#3b7fa6;stroke-width:0.15625;stroke-opacity:0"
     d="m 524.83128,-116.17188 c -1.2e-4,-1.7188 0.0227,-2.4432 0.052,-1.61 0.028,0.8332 0.0282,2.2396 2.8e-4,3.1252 -0.0279,0.8856 -0.052,0.204 -0.052,-1.5152 z"
     id="path19" />
  <path
     style="opacity:0.86;fill:#00294d;fill-opacity:1;stroke:#3b7fa6;stroke-width:2.5;stroke-opacity:0"
     d="m 527.20496,-139.95204 c 0.9548,-28.9498 2.312,-54.13728 3.016,-55.97224 0.704,-1.8348 7.69248,-4.73332 15.52964,-6.44084 53.90172,-11.74364 99.18524,-36.74732 137.23832,-75.77736 34.51424,-35.40036 55.91804,-73.14332 73.4124,-129.45396 L 764.13828,-432.5 h 15.65836 c 8.61212,0 32.71224,-0.738 53.55588,-1.6404 l 37.89748,-1.6404 v 8.57804 c 0,9.81188 -12.29812,61.47232 -19.69232,82.72132 -30.6392,88.04852 -106.13988,171.96952 -195.1292,216.89116 -32.9116,16.61376 -84.88148,33.34628 -119.94388,38.61788 l -11.01536,1.656 z"
     id="path29" />
  <path
     style="opacity:0.86;fill:#00294d;fill-opacity:1;stroke:#3b7fa6;stroke-width:0.15625;stroke-opacity:0"
     d="m 670.07812,-127.77656 c 0,-0.12 -0.4652,-0.196 -1.3656,-0.224 l -1.3656,-0.044 3.5924,-1.9372 c 19.62784,-10.58364 40.055,-24.12928 58.20164,-38.59452 10.49572,-8.36648 19.90732,-16.68508 30.82136,-27.24192 l 3.5136,-3.3984 0.9184,0.005 0.9184,0.005 -3.518,3.4712 c -26.60464,26.25008 -56.94276,48.89688 -88.70448,66.21608 -1.4416,0.786 -2.7088,1.5408 -2.8164,1.6768 -0.108,0.136 -0.196,0.168 -0.196,0.068 z"
     id="path34" />
  <path
     style="opacity:0.86;fill:#00294d;fill-opacity:1;stroke:#3b7fa6;stroke-width:0.15625;stroke-opacity:0"
     d="m 669.97588,-127.92472 c -0.1,-0.0327 -0.6188,-0.108 -1.1568,-0.168 l -0.9784,-0.108 3.5708,-1.936 c 4.65,-2.5212 10.91772,-6.10696 10.98408,-6.28416 0.0286,-0.076 0.14,-0.14 0.248,-0.14 0.4464,0 11.90472,-7.14184 18.373,-11.45168 21.94668,-14.62304 38.68352,-28.18192 59.46788,-48.17616 l 3.1396,-3.0204 0.6692,0.116 0.6692,0.116 -3.5832,3.5144 c -26.19744,25.69584 -55.15624,47.44692 -85.91004,64.52736 -2.0624,1.1456 -4.102,2.306 -4.53216,2.5788 -0.43,0.272 -0.8624,0.4696 -0.9608,0.4368 z"
     id="path35" />
  <path
     style="opacity:0.86;fill:#00294d;fill-opacity:1;stroke:#3b7fa6;stroke-width:0.15625;stroke-opacity:0"
     d="m 669.14064,-128.07792 c -1.0664,-0.116 -1.0212,-0.212 0.4736,-1.0132 2.8128,-1.508 8.51924,-4.70556 10.77648,-6.03848 1.246,-0.736 2.5492,-1.4896 2.8956,-1.6756 2.1992,-1.1784 12.34,-7.5676 18.04184,-11.36716 21.25388,-14.16308 37.57784,-27.32832 57.50044,-46.37404 4.85508,-4.64136 4.69824,-4.50692 5.2638,-4.51196 0.276,-0.002 0.5356,0.056 0.5808,0.128 0.044,0.072 -0.4252,0.616 -1.0456,1.2056 -0.6204,0.59 -2.3232,2.2364 -3.784,3.6588 -22.30244,21.7152 -46.983,40.78924 -73.28128,56.6344 -2.1484,1.2944 -3.918,2.412 -3.9324,2.4832 -0.044,0.22 -0.208,0.324 -0.208,0.132 0,-0.1 -0.5096,0.128 -1.1328,0.5032 -2.6608,1.602 -11.20772,6.34024 -11.39596,6.31736 -0.112,-0.0138 -0.4516,-0.052 -0.7524,-0.084 z"
     id="path36" />
  <path
     style="opacity:0.86;fill:#00294d;fill-opacity:1;stroke:#3b7fa6;stroke-width:0.625;stroke-opacity:0"
     d="m 790.31248,-226.17624 c 0,-0.344 0.28,-0.7988 0.6252,-1.0112 0.344,-0.212 0.6252,-0.104 0.6252,0.24 0,0.344 -0.28,0.7988 -0.6252,1.0112 -0.344,0.212 -0.6252,0.104 -0.6252,-0.24 z"
     id="path41" />
  <path
     style="opacity:0.86;fill:#00294d;fill-opacity:1;stroke:#3b7fa6;stroke-width:0.625;stroke-opacity:0"
     d="m 819.68748,-266.64496 c 0,-0.764 2.6464,-4.66704 2.9552,-4.35828 0.172,0.172 -0.304,1.3116 -1.0596,2.5328 -1.3112,2.1216 -1.8952,2.684 -1.8952,1.8256 z"
     id="path44" />
  <path
     style="opacity:0.86;fill:#00294d;fill-opacity:1;stroke:#3b7fa6;stroke-width:0.625;stroke-opacity:0"
     d="m 527.9112,-194.375 c 0,-0.8592 0.14,-1.2108 0.316,-0.7812 0.172,0.4296 0.172,1.1328 0,1.5624 -0.172,0.4296 -0.316,0.08 -0.316,-0.7812 z"
     id="path45" />
  <path
     style="opacity:0.86;fill:#00294d;fill-opacity:1;stroke:#3b7fa6;stroke-width:0.625;stroke-opacity:0"
     d="m 523.52484,-122.55208 c 0.048,-17.33072 0.26,-42.0538 0.4688,-54.94016 0.372,-22.79832 0.4152,-23.43504 1.6312,-23.62732 1.0252,-0.164 1.0812,-0.084 0.312,0.438 -0.8172,0.554 -0.9776,7.5752 -1.25,54.66956 -0.172,29.71872 -0.5236,54.24472 -0.7812,54.5022 -0.256,0.256 -0.4296,-13.71148 -0.38,-31.0422 z"
     id="path46" />
  <path
     style="opacity:0.86;fill:#00294d;fill-opacity:1;stroke:#3b7fa6;stroke-width:0.625;stroke-opacity:0"
     d="m 521.23764,-142.18752 c 4e-5,-33 0.076,-46.40832 0.168,-29.79628 0.092,16.612 0.092,43.612 -4e-5,60 -0.092,16.38796 -0.168,2.7964 -0.16796,-30.20372 z"
     id="path47" />
  <path
     style="opacity:0.86;fill:#00294d;fill-opacity:1;stroke:#3b7fa6;stroke-width:0.625;stroke-opacity:0"
     d="M 521.56248,-142.14964 V -201.875 l 1.7188,0.01 c 1.0888,0.006 1.4328,0.192 0.9384,0.5052 -1.132,0.7188 -1.4512,113.37172 -0.328,115.89148 0.6932,1.556 1.0732,1.7188 4.0104,1.7188 4.41296,0 3.6584,0.372 -1.8076,0.894 l -4.53128,0.4316 z"
     id="path48" />
  <path
     style="opacity:0.86;fill:#00294d;fill-opacity:1;stroke:#3b7fa6;stroke-width:0.625;stroke-opacity:0"
     d="m 528.28124,-201.66392 c 0.4296,-0.172 1.1328,-0.172 1.5624,0 0.4296,0.172 0.08,0.316 -0.7812,0.316 -0.8592,0 -1.2108,-0.14 -0.7812,-0.316 z"
     id="path50" />
  <path
     style="opacity:0.86;fill:#00294d;fill-opacity:1;stroke:#3b7fa6;stroke-width:0.625;stroke-opacity:0"
     d="m 528.48684,-198.4896 c 0.03,-0.728 0.18,-0.876 0.376,-0.376 0.18,0.4512 0.16,0.9904 -0.048,1.198 -0.208,0.208 -0.356,-0.16 -0.328,-0.8204 z"
     id="path55" />
  <path
     style="opacity:0.86;fill:#00294d;fill-opacity:1;stroke:#3b7fa6;stroke-width:0.625;stroke-opacity:0"
     d="m 525.4774,-173.125 c -0.0228,-23.15428 0.268,-27.09656 2.0228,-27.37136 0.9724,-0.152 1.0536,-0.06 0.368,0.4064 -0.7096,0.484 -1.0296,5.0656 -1.6268,23.31484 l -0.7436,22.71252 z"
     id="path57" />
  <path
     style="opacity:0.86;fill:#00294d;fill-opacity:1;stroke:#3b7fa6;stroke-width:0.625;stroke-opacity:0"
     d="m 525.68552,-116.56252 c 0.6712,-40.81676 2.0692,-72.85608 3.3952,-77.81248 0.4692,-1.754 0.5284,-1.3344 0.3,2.1144 -0.6068,9.13296 -2.298,46.76672 -3.1208,69.44792 -0.8516,23.47232 -0.858,23.5454 -0.5736,6.25 z"
     id="path58" />
  <path
     style="opacity:0.86;fill:#00294d;fill-opacity:1;stroke:#3b7fa6;stroke-width:0.625;stroke-opacity:0"
     d="m 525.93816,-91.42188 c 0.002,-12.70008 2.7208,-82.28036 3.766,-96.38532 0.542,-7.313 0.7416,-8.22704 2.0112,-9.20008 2.2024,-1.6876 9.2408,-3.9928 20.4742,-6.7048 42.3066,-10.21432 77.20156,-27.64736 110.31048,-55.10968 7.70104,-6.38764 28.42728,-27.0062 34.79656,-34.61576 25.42248,-30.37296 42.4052,-62.36864 57.24832,-107.85652 2.7404,-8.39768 5.6218,-17.44816 6.40348,-20.1122 l 1.4212,-4.84376 h 54.3426 54.3426 l -0.4308,3.2812 c -1.454,11.07424 -8.97596,43.36456 -14.90528,63.9868 -15.34576,53.37284 -47.16352,105.68148 -92.28116,151.71084 -30.95524,31.58084 -62.84376,55.74288 -99.68748,75.53356 -33.08576,17.77204 -84.87952,35.32716 -123.125,41.73232 -6.18752,1.0364 -12.02344,2.0168 -12.96876,2.1792 l -1.7188,0.296 z m 2.6932,-96.39064 c 0.004,-2.0624 0.12,-2.8308 0.26,-1.7076 0.14,1.1232 0.136,2.8108 -0.006,3.75 -0.144,0.9392 -0.256,0.02 -0.252,-2.0424 z"
     id="path59" />
  <path
     style="opacity:0.86;fill:#00294d;fill-opacity:1;stroke:#3b7fa6;stroke-width:0.625;stroke-opacity:0"
     d="m 525.93748,-91.4978 c 0,-13.684 3.3328,-94.82592 4.15644,-101.1914 0.6588,-5.09356 2.5164,-5.99264 23.34356,-11.2984 33.77104,-8.60336 58.8706,-19.5156 85,-36.9544 17.37484,-11.596 30.01708,-22.1814 45.5032,-38.10008 19.83916,-20.39324 32.4994,-37.65276 45.92384,-62.6074 10.62644,-19.75332 22.38848,-49.92528 31.09188,-79.75676 l 1.4132,-4.84376 h 54.28396 c 46.71524,0 54.28392,0.124 54.28392,0.896 0,4.43096 -7.03092,36.07488 -12.5768,56.60412 -6.60172,24.43764 -12.05236,39.08804 -22.43904,60.31248 -14.51164,29.65348 -33.31196,57.53932 -57.09532,84.68752 -8.2674,9.43704 -30.0676,31.2284 -39.13884,39.123 -36.68948,31.93036 -74.70256,55.17324 -115.93748,70.88936 -30.42884,11.59752 -58.623,19.56936 -85,24.03368 -5.15624,0.8728 -10.14844,1.7184 -11.09376,1.8796 l -1.7188,0.292 z"
     id="path60" />
  <path
     style="opacity:0.86;fill:#00294d;fill-opacity:1;stroke:#3b7fa6;stroke-width:2.5;stroke-opacity:0"
     d="m 869.15008,-420.33344 c -0.6096,-6.22312 -7.76768,-7.09548 -58.52508,-7.13244 -25.78124,-0.0188 -46.875,-1.0088 -46.875,-2.2 0,-1.8748 104.9016,-5.77864 107.05132,-3.984 0.4408,0.368 0.34,4.4334 -0.224,9.03432 -0.5644,4.60096 -1.2064,6.5278 -1.4264,4.28192 z"
     id="path66" />
  <path
     style="opacity:0.86;fill:#00294d;fill-opacity:1;stroke:#3b7fa6;stroke-width:0.625;stroke-opacity:0"
     d="m 837.18748,-304.73216 c 0,-0.196 0.352,-0.7244 0.7812,-1.1736 0.4296,-0.4488 1.2032,-1.4476 1.7188,-2.2196 0.5156,-0.7716 1.234,-1.7204 1.596,-2.108 0.6404,-0.6852 2.3268,-6.62604 3.4668,-12.2158 0.308,-1.5184 0.7036,-2.9016 0.8752,-3.0728 0.6812,-0.6816 0.224,2.3852 -1.2468,8.33404 -1.8508,7.4934 -3.4244,11.34164 -4.16204,10.17912 -0.412,-0.6492 -0.512,-0.6452 -0.5196,0.0218 -0.005,0.4544 -0.4112,1.2276 -0.9024,1.7188 -0.9264,0.9264 -1.6072,1.1532 -1.6072,0.5356 z"
     id="path70" />
  <path
     style="opacity:0.86;fill:#00294d;fill-opacity:1;stroke:#3b7fa6;stroke-width:0.625;stroke-opacity:0"
     d="m 809.68748,-251.53012 c 0,-0.7236 9.5858,-14.71744 9.87992,-14.42332 0.168,0.168 -1.7512,3.4168 -4.2652,7.219 -4.1798,6.32152 -5.61472,8.16268 -5.61472,7.20432 z"
     id="path71" />
  <path
     style="opacity:0.86;fill:#00294d;fill-opacity:1;stroke:#3b7fa6;stroke-width:0.15625;stroke-opacity:0"
     d="m 813.20312,-255.39476 c 0,-0.044 0.6224,-1.012 1.3828,-2.1484 2.5864,-3.8648 5.02204,-7.87824 5.0232,-8.27712 0.001,-0.38 -0.4476,0.096 -1.7316,1.8372 -0.7936,1.0748 -1.4716,1.9252 -1.5072,1.8896 -0.0356,-0.0356 0.7252,-1.3024 1.6904,-2.8152 0.9652,-1.5128 1.7808,-2.7244 1.8124,-2.6928 0.0317,0.0317 -0.0146,0.248 -0.104,0.48 -0.216,0.5728 -0.2,0.8708 0.048,0.8708 0.312,0 0.7684,-0.5532 1.7356,-2.0968 1.4136,-2.2564 1.6016,-3.5136 0.308,-2.048 -0.376,0.4272 -0.6868,0.732 -0.6868,0.6768 0,-0.056 0.9724,-1.7056 2.1612,-3.6676 9.80524,-16.18516 18.54204,-33.38556 25.93924,-51.06736 l 1.6996,-4.06252 0.6468,-0.048 c 0.356,-0.0264 0.6468,0.0184 0.6468,0.1 0,0.204 -2.654,6.64724 -4.26908,10.36392 -8.8622,20.39364 -19.09872,39.24708 -31.60928,58.21744 -2.7012,4.09616 -3.184,4.77668 -3.184,4.48804 z"
     id="path73" />
  <path
     style="opacity:0.86;fill:#00294d;fill-opacity:1;stroke:#3b7fa6;stroke-width:0.15625;stroke-opacity:0"
     d="m 809.76564,-251.52944 c 0,-0.5756 9.0914,-13.96248 9.32428,-13.7296 0.352,0.352 -8.59576,13.8528 -9.17824,13.8528 -0.08,0 -0.148,-0.056 -0.148,-0.124 z"
     id="path74" />
  <path
     style="opacity:0.86;fill:#00294d;fill-opacity:1;stroke:#3b7fa6;stroke-width:0.883884;stroke-opacity:0"
     d="m 791.307,-437.36612 c 1.0996,-0.212 2.6904,-0.204 3.5356,0.0178 0.8452,0.22 -0.056,0.396 -1.9992,0.384 -1.9444,-0.01 -2.636,-0.192 -1.5364,-0.4024 z"
     id="path79" />
  <path
     style="opacity:0.86;fill:#00294d;fill-opacity:1;stroke:#3b7fa6;stroke-width:0.883884;stroke-opacity:0"
     d="m 784.23592,-437.36612 c 1.0996,-0.212 2.6904,-0.204 3.5356,0.0178 0.8452,0.22 -0.056,0.396 -1.9992,0.384 -1.9444,-0.01 -2.636,-0.192 -1.5364,-0.4024 z"
     id="path80" />
  <path
     style="opacity:0.86;fill:#00294d;fill-opacity:1;stroke:#3b7fa6;stroke-width:0.883884;stroke-opacity:0"
     d="m 778.04872,-437.36612 c 1.0996,-0.212 2.6904,-0.204 3.5356,0.0178 0.8452,0.22 -0.056,0.396 -1.9992,0.384 -1.9444,-0.01 -2.636,-0.192 -1.5364,-0.4024 z"
     id="path81" />
  <path
     style="opacity:0.86;fill:#00294d;fill-opacity:1;stroke:#3b7fa6;stroke-width:0.883884;stroke-opacity:0"
     d="m 779.8062,-436.51904 c 10.3304,-0.14 27.23464,-0.14 37.56504,0 10.3304,0.14 1.8784,0.256 -18.78252,0.256 -20.66076,0 -29.11292,-0.116 -18.78252,-0.256 z"
     id="path82" />
  <path
     style="opacity:0.86;fill:#00294d;fill-opacity:1;stroke:#3b7fa6;stroke-width:0.15625;stroke-opacity:0"
     d="m 764.46072,-200.27344 c 0.558,-0.58 2.1056,-2.1796 3.4384,-3.5548 16.16884,-16.67824 31.41724,-35.54676 44.54232,-55.1172 l 2.4888,-3.7108 h 0.7044 c 0.862,0 0.9836,-0.276 -1.544,3.5156 -13.3186,19.98576 -27.42816,37.57168 -44.5978,55.58596 l -4.13264,4.33592 h -0.9572 -0.9572 z"
     id="path83" />
  <path
     style="opacity:0.86;fill:#00294d;fill-opacity:1;stroke:#3b7fa6;stroke-width:0.15625;stroke-opacity:0"
     d="m 765.024,-200.69168 c 0.7604,-0.81 2.8872,-3.0424 4.72652,-4.96092 12.61168,-13.1538 24.682,-27.71484 35.66072,-43.01928 2.5912,-3.612 6.90584,-9.86756 8.65124,-12.54264 0.8628,-1.322 0.978,-1.4372 1.4452,-1.4392 0.336,-0.002 0.508,0.072 0.508,0.22 0,0.376 -5.05708,7.87872 -9.59156,14.22952 -11.41544,15.98812 -23.47456,30.44864 -38.3414,45.97656 l -2.8796,3.008 h -0.7804 -0.7808 z"
     id="path84" />
  <path
     style="opacity:0.86;fill:#00294d;fill-opacity:1;stroke:#3b7fa6;stroke-width:0.15625;stroke-opacity:0"
     d="m 764.15244,-199.64 c 0.208,-0.232 1.82,-1.9384 3.582,-3.7924 4.96092,-5.22124 7.51092,-7.96372 10.32208,-11.10124 12.53776,-13.99328 23.48828,-28.04044 34.01596,-43.63532 2.6956,-3.9932 3.3068,-4.71748 3.6716,-4.3526 0.232,0.232 0.184,0.308 -2.7072,4.63104 -12.98568,19.40952 -26.5024,36.13736 -44.65936,55.26912 l -3.2212,3.394 -0.6912,0.004 -0.6912,0.004 z"
     id="path85" />
  <path
     style="opacity:0.86;fill:#00294d;fill-opacity:1;stroke:#3b7fa6;stroke-width:0.15625;stroke-opacity:0"
     d="m 764.474,-199.96092 c 20.28564,-21.13776 33.17248,-36.94276 48.3804,-59.33596 1.5564,-2.2916 2.4116,-3.3592 2.6912,-3.3592 0.372,0 0.292,0.4196 -0.244,1.2996 -1.1148,1.8324 -6.627,9.91648 -9.1286,13.38792 -11.71868,16.26204 -22.50812,29.20184 -37.87676,45.42564 l -3.1416,3.3164 -0.6972,0.004 -0.6972,0.004 z"
     id="path86" />
  <path
     style="opacity:0.86;fill:#00294d;fill-opacity:1;stroke:#3b7fa6;stroke-width:0.15625;stroke-opacity:0"
     d="m 764.22856,-199.72572 c 0.252,-0.28 1.1344,-1.2104 1.9604,-2.0704 18.02136,-18.765 31.4884,-35.28068 45.48844,-55.78596 3.298,-4.8306 3.8996,-5.53104 4.13728,-4.81796 0.148,0.4476 -8.31244,12.78348 -14.07848,20.52496 -6.64068,8.91576 -14.16492,18.13212 -21.81424,26.72004 -3.5692,4.00724 -4.33476,4.83888 -10.4618,11.36612 l -4.28996,4.57008 h -0.7004 -0.7004 z"
     id="path87" />
  <path
     style="opacity:0.86;fill:#00294d;fill-opacity:1;stroke:#3b7fa6;stroke-width:0.15625;stroke-opacity:0"
     d="m 764.30556,-199.80468 c 0.28,-0.324 1.7148,-1.8516 3.1872,-3.3984 4.30368,-4.52096 5.49508,-5.79264 7.98064,-8.51844 13.45208,-14.75216 24.1992,-28.37372 36.24148,-45.93468 3.3324,-4.85964 3.6496,-5.24488 4.01668,-4.87792 0.224,0.224 -0.08,0.746 -2.6808,4.64352 -12.66476,18.9718 -27.47196,37.30088 -44.6212,55.2344 -0.7808,0.8164 -1.8296,1.9236 -2.3312,2.4608 -0.8544,0.9152 -0.9552,0.9764 -1.6072,0.9764 h -0.6956 z"
     id="path88" />
  <path
     style="opacity:0.86;fill:#00294d;fill-opacity:1;stroke:#3b7fa6;stroke-width:0.625;stroke-opacity:0"
     d="m 597.5,-99.12436 c 22.72512,-7.16212 45.36552,-16.18168 63.64916,-25.35684 3.382,-1.6972 6.43564,-2.9904 6.78544,-2.874 0.8148,0.272 -20.54312,10.62072 -30.67972,14.86612 -14.44204,6.0486 -42.62812,15.68464 -45.55128,15.57268 -0.5932,-0.02268 2.0152,-1.0164 5.7964,-2.208 z"
     id="path97" />
  <path
     style="opacity:0.86;fill:#00294d;fill-opacity:1;stroke:#3b7fa6;stroke-width:0.15625;stroke-opacity:0"
     d="m 529.29688,-83.142 c 2.3472,-0.372 1.998,-0.5836 -1.1812,-0.7104 -1.37,-0.056 -2.6528,-0.16 -2.8508,-0.232 -0.8472,-0.312 -1.6016,-3.3196 -1.5816,-6.3062 0.006,-0.906 0.06,-1.4328 0.132,-1.254 0.092,0.232 0.144,0.12 0.22,-0.4688 0.136,-1.0904 0.4236,-17.24176 0.5636,-31.79272 l 0.116,-12.26564 0.0261,18.51564 c 0.0147,10.45548 -0.048,21.2956 -0.148,24.90176 -0.12,4.41172 -0.124,6.41712 -0.0121,6.4864 0.088,0.056 0.184,0.348 0.212,0.6512 l 0.052,0.5508 5.625,-0.5804 c 13.30172,-1.372 19.42252,-2.256 29.68748,-4.28744 12.34688,-2.4436 27.0322,-6.24256 39.89396,-10.32068 1.4884,-0.472 2.7784,-0.834 2.8664,-0.8048 0.088,0.0294 -1.5516,0.6044 -3.644,1.2776 -4.89456,1.5752 -7.21788,2.4012 -7.57832,2.6936 -0.26,0.212 -0.208,0.224 0.5712,0.144 0.4728,-0.052 1.1056,-0.124 1.4064,-0.164 1.7188,-0.232 -9.55412,2.7244 -16.40624,4.30364 -10.3904,2.3948 -28.61188,6.05704 -33.82812,6.79884 -0.4296,0.06 -0.9572,0.204 -1.172,0.32 -0.34,0.18 -0.06,0.212 2.1876,0.232 2.9564,0.02828 3.0588,-7.2e-4 -3.2032,0.9084 -5.48888,0.7968 -11.72056,1.5852 -12.34068,1.5612 -0.296,-0.01152 -0.152,-0.068 0.388,-0.156 z m 3.3592,-1.0816 c 1.3748,-0.176 3.6448,-0.4908 5.04444,-0.7032 1.3996,-0.212 2.624,-0.384 2.7212,-0.384 0.096,0 0.136,-0.03928 0.088,-0.088 -0.048,-0.048 -1.7648,0.156 -3.8152,0.456 -2.0504,0.3 -4.50124,0.6244 -5.44656,0.7232 -2.282,0.24 -2.454,0.268 -1.7188,0.292 0.344,0.01172 1.75,-0.12 3.1252,-0.296 z m 8.55468,-1.3488 c -0.108,-0.044 -0.284,-0.044 -0.392,0 -0.108,0.044 -0.0195,0.08 0.196,0.08 0.216,0 0.304,-0.03544 0.196,-0.08 z"
     id="path101" />
  <path
     style="opacity:0.86;fill:#00294d;fill-opacity:1;stroke:#3b7fa6;stroke-width:0.15625;stroke-opacity:0"
     d="m 521.64064,-125.15624 v -42.65628 h 0.7904 0.7904 l -0.048,36.44532 c -0.044,33.84028 -0.0279,36.7692 0.236,40.97656 0.26,4.15888 0.316,4.59736 0.6676,5.33548 0.494,1.0384 1.0216,1.3 2.6648,1.3208 0.6744,0.0085 1.824,0.064 2.5544,0.12 l 1.328,0.104 -1.25,0.192 c -0.9296,0.144 -7.27476,0.8188 -7.67696,0.8188 -0.0316,0 -0.056,-19.19532 -0.056,-42.65624 z"
     id="path103" />
  <path
     style="opacity:0.86;fill:#00294d;fill-opacity:1;stroke:#3b7fa6;stroke-width:0.15625;stroke-opacity:0"
     d="m 521.74648,-82.60248 c -0.06,-0.06 -0.104,-19.25428 -0.104,-42.65792 v -42.55212 h 0.7936 0.794 l -0.052,36.3672 c -0.0284,20.00196 0.003,37.28124 0.072,38.39844 0.4544,7.55536 0.4812,7.74428 1.2244,8.59096 0.5524,0.6292 0.674,0.6556 3.6532,0.8016 2.6592,0.132 2.3928,0.232 -1.7968,0.6728 -1.6756,0.176 -3.3684,0.36 -3.7612,0.4032 -0.392,0.044 -0.762,0.03364 -0.8204,-0.0246 z"
     id="path104" />
  <path
     style="opacity:0.86;fill:#00294d;fill-opacity:1;stroke:#3b7fa6;stroke-width:0.15625;stroke-opacity:0"
     d="m 521.7448,-82.60416 c -0.056,-0.056 -0.104,-19.2526 -0.104,-42.65624 v -42.55212 h 0.7812 0.7812 l 0.008,37.2266 c 0.004,20.4746 0.037,37.5078 0.072,37.85156 0.0356,0.344 0.144,1.9256 0.236,3.5156 0.188,3.1488 0.3,3.8644 0.6908,4.46376 0.4888,0.7456 1.1356,1.002 2.5856,1.024 0.7304,0.01096 1.8204,0.064 2.422,0.12 1.0104,0.092 1.05,0.108 0.5208,0.22 -0.44,0.092 -7.35672,0.8816 -7.79924,0.89 -0.052,9.6e-4 -0.14,-0.044 -0.196,-0.104 z"
     id="path105" />
  <path
     style="opacity:0.86;fill:#00294d;fill-opacity:1;stroke:#3b7fa6;stroke-width:0.15625;stroke-opacity:0"
     d="m 521.7448,-82.60416 c -0.056,-0.056 -0.104,-19.2526 -0.104,-42.65624 v -42.55212 h 0.7812 0.7812 v 36.64956 c 0,30.90752 0.0371,37.26632 0.236,40.58596 0.264,4.36184 0.392,5.23768 0.8824,5.92524 0.468,0.6572 1.1676,0.8988 2.6648,0.92 0.7116,0.01004 1.7512,0.064 2.3096,0.12 l 1.0156,0.104 -1.0936,0.192 c -0.876,0.152 -6.76676,0.8156 -7.24848,0.8156 -0.068,0 -0.168,-0.048 -0.224,-0.104 z"
     id="path106" />
  <path
     style="opacity:0.86;fill:#00294d;fill-opacity:1;stroke:#3b7fa6;stroke-width:0.15625;stroke-opacity:0"
     d="m 523.71128,-92.57812 c 0.002,-0.344 0.0337,-0.466 0.072,-0.272 0.0374,0.196 0.0359,0.4756 -0.003,0.6252 -0.0391,0.148 -0.068,-0.0096 -0.068,-0.352 z"
     id="path107" />
  <path
     style="opacity:0.86;fill:#00294d;fill-opacity:1;stroke:#3b7fa6;stroke-width:0.15625;stroke-opacity:0"
     d="m 524.16528,-98.125 c 0,-0.216 0.0355,-0.304 0.08,-0.196 0.044,0.108 0.044,0.284 0,0.392 -0.044,0.108 -0.08,0.01952 -0.08,-0.196 z"
     id="path109" />
  <path
     style="opacity:0.86;fill:#00294d;fill-opacity:1;stroke:#3b7fa6;stroke-width:0.15625;stroke-opacity:0"
     d="m 524.62496,-100.2474 c 0.009,-0.5084 0.068,-1.1004 0.136,-1.3152 0.068,-0.216 0.084,0.172 0.04,0.8592 -0.096,1.488 -0.2,1.758 -0.176,0.4556 z"
     id="path110" />
  <path
     style="opacity:0.86;fill:#00294d;fill-opacity:1;stroke:#3b7fa6;stroke-width:0.15625;stroke-opacity:0"
     d="m 523.74556,-96.20272 c -0.132,-4.3632 0.0323,-66.92568 0.184,-69.77384 0.096,-1.8124 0.104,-1.836 0.4772,-1.836 h 0.38 l -0.096,11.28908 c -0.316,38.0526 -0.4136,47.50116 -0.566,55.35156 -0.092,4.81252 -0.192,8.77128 -0.216,8.79728 -0.0254,0.02604 -0.1,-1.6968 -0.164,-3.828 z"
     id="path111" />
</svg>
